<svg id="SvgjsSvg1011" xmlns="http://www.w3.org/2000/svg" version="1.1" xmlns:xlink="http://www.w3.org/1999/xlink" xmlns:svgjs="http://svgjs.com/svgjs" width="205" height="60" viewBox="0 0 205 60"><title>Фигура 9 копия</title><desc>Created with Avocode.</desc><defs id="SvgjsDefs1012"></defs><path id="SvgjsPath1013" d="M603.976 980.831C606.435 980.653 607.861 979.797 607.861 979.797C607.861 979.797 606.364 971.301 598.5219999999999 966.054C598.5219999999999 966.054 598.6289999999999 957.952 600.7679999999999 953.4889999999999C600.7679999999999 953.4889999999999 603.1209999999999 954.4169999999999 607.8249999999999 959.9859999999999C607.8249999999999 959.9859999999999 605.5809999999999 954.9169999999999 601.5529999999999 951.2409999999999C601.5529999999999 951.2409999999999 602.4789999999999 948.8849999999999 603.6909999999999 946.5999999999999C603.6909999999999 946.5999999999999 608.146 951.526 609.5369999999999 954.2389999999999C609.5369999999999 954.2389999999999 608.6099999999999 950.3119999999999 604.7249999999999 944.53C604.7249999999999 944.53 605.901 942.174 606.8269999999999 940.7819999999999C606.8269999999999 940.7819999999999 610.5699999999999 946.136 611.9959999999999 949.242C611.9959999999999 949.242 611.3189999999998 945.4929999999999 608.1459999999998 938.605C608.1459999999998 938.605 610.5699999999998 935.285 611.7819999999998 934C611.7819999999998 934 620.4449999999998 955.953 616.4169999999998 975.263C616.4169999999998 975.263 617.0413699999998 975.0596300000001 618.7914999999998 974.7080500000001C617.8661199999998 974.8853600000001 617.2564099999998 975.02623 616.8799999999998 975.1200000000001C616.8799999999998 975.1200000000001 620.9079999999998 959.7360000000001 616.4879999999997 942.2100000000002L622.2269999999997 938.4980000000002C622.2269999999997 938.4980000000002 627.4990999999998 951.4478800000002 620.4867799999997 974.3880800000002C621.1915999999998 974.2623800000001 622.0051099999997 974.1252300000002 622.9399999999997 973.9780000000002C627.8939999999997 973.2290000000002 630.7469999999997 973.6930000000002 633.7049999999997 973.0870000000002C636.6279999999997 972.5150000000002 642.7599999999996 971.2650000000002 647.0719999999997 969.1240000000003C651.4209999999997 966.9470000000002 652.9539999999996 966.3040000000002 655.7339999999997 965.6260000000002C658.4789999999997 964.9840000000002 665.9999999999997 966.1250000000002 665.9999999999997 966.1250000000002C665.9999999999997 966.1250000000002 653.5249999999996 969.4100000000002 646.6449999999996 974.2650000000002C639.7999999999996 979.1540000000002 636.0209999999996 983.2940000000002 632.0999999999997 985.9360000000003C628.2159999999997 988.5770000000002 616.2029999999996 995.6100000000002 607.2199999999997 990.6480000000003C598.2009999999997 985.7220000000002 598.4149999999997 979.9750000000003 598.4149999999997 979.9750000000003C598.4149999999997 979.9750000000003 601.4799999999998 981.0110000000002 603.9759999999998 980.8310000000002ZM541.59353 961.86993L541.525 961.343L528.621 961.343L528.193 964.626L525.413 964.626L525.413 957.9159999999999L527.551 957.9159999999999C527.6930000000001 957.7009999999999 527.907 957.309 528.2280000000001 956.631C528.514 955.9879999999999 528.7990000000001 955.06 529.119 953.847C529.404 952.6329999999999 529.655 951.098 529.904 949.313C530.118 947.4929999999999 530.189 945.351 530.153 942.852L542.201 942.852L542.201 957.9159999999999L544.7330000000001 957.9159999999999L544.7330000000001 962.2905199999999C545.8641500000001 963.0547999999999 546.9060000000001 964.1917599999999 546.9060000000001 965.055C546.9060000000001 966.0889999999999 545.873 967.3739999999999 542.1300000000001 974.7639999999999C538.8500000000001 981.2249999999999 536.9260000000002 984.2579999999999 536.9260000000002 985.9709999999999C536.9260000000002 986.5429999999999 537.1040000000002 986.8639999999999 537.7450000000001 986.8639999999999C538.3520000000001 986.8639999999999 538.8870000000002 986.6499999999999 540.8110000000001 986.0429999999999C542.7360000000001 985.4009999999998 543.2360000000001 985.2229999999998 543.6270000000002 985.2229999999998C544.4820000000002 985.2229999999998 545.5160000000002 985.8289999999998 545.5160000000002 987.1489999999999C545.5160000000002 991.9689999999999 537.7110000000002 993.0039999999999 535.1070000000002 993.0039999999999C531.9710000000002 993.0039999999999 530.2240000000002 989.7549999999999 530.2240000000002 987.0779999999999C530.2240000000002 986.8289999999998 530.0820000000001 982.4379999999999 538.7450000000001 966.4109999999998C539.7848000000001 964.4884899999998 540.6046800000001 962.6661399999998 541.5935300000001 961.8699299999998ZM569.221 976.906C567.368 981.367 566.94 983.2589999999999 565.978 985.9359999999999C565.5859999999999 987.007 565.1569999999999 988.078 564.837 989.185C564.6229999999999 989.934 564.481 990.684 564.16 991.433C563.553 992.789 562.627 993.004 562.199 993.004C561.9499999999999 993.004 561.237 992.933 559.81 991.862C558.6709999999999 991.04 558.1709999999999 990.2909999999999 558.1709999999999 988.827C558.1709999999999 986.615 561.0939999999999 980.975 562.3409999999999 977.548C561.0219999999999 977.655 561.0579999999999 976.87 560.8089999999999 975.906C560.6309999999999 975.227 560.2749999999999 974.443 560.2749999999999 973.871C560.2749999999999 972.872 562.6269999999998 971.766 564.4809999999999 971.443C568.6509999999998 962.092 572.7149999999999 960.6279999999999 574.8539999999999 960.6279999999999C576.7779999999999 960.6279999999999 578.7019999999999 962.021 578.7019999999999 964.483C578.7019999999999 967.2669999999999 577.2059999999999 968.8389999999999 575.4949999999999 968.8389999999999C573.9619999999999 968.8389999999999 573.4269999999999 967.91 573.2129999999999 967.41C572.6429999999998 968.053 572.0009999999999 968.91 571.1459999999998 970.8729999999999C571.8229999999999 970.8009999999999 572.1079999999998 970.8009999999999 572.3229999999999 970.8009999999999C573.5709999999999 970.8009999999999 575.3169999999999 974.193 575.3169999999999 975.0849999999999C575.3169999999999 976.049 574.3899999999999 976.2629999999999 573.4269999999999 976.405C571.4669999999999 976.6909999999999 571.8589999999999 976.405 569.2209999999999 976.906ZM579.95 982.866C579.7370000000001 983.473 579.4870000000001 984.401 579.4870000000001 985.294C579.4870000000001 985.793 579.416 986.971 580.7350000000001 986.971C581.6980000000001 986.971 582.8390000000002 986.65 584.1210000000001 986.043C586.0110000000001 985.151 586.6870000000001 984.686 587.1510000000001 984.686C587.5430000000001 984.686 588.292 984.9730000000001 588.292 986.1510000000001C588.292 988.791 587.971 989.1850000000001 586.474 990.148C584.1210000000001 991.6120000000001 581.7330000000001 992.183 579.8430000000001 992.183C576.1 992.183 573.464 989.9689999999999 573.464 985.864C573.464 978.548 581.1270000000001 969.802 586.474 969.802C589.611 969.802 592.07 972.657 592.07 975.477C592.07 979.583 587.792 982.189 585.3330000000001 983.437C584.5140000000001 983.866 583.6930000000001 984.223 582.8020000000001 984.223C581.7330000000002 984.223 580.5210000000002 983.294 579.9500000000002 982.866ZM546.943 942.852L558.848 942.852L558.848 946.279L550.8629999999999 946.279L550.8629999999999 950.312L558.0999999999999 950.312L558.0999999999999 953.739L550.8629999999999 953.739L550.8629999999999 957.916L558.9899999999999 957.916L558.9899999999999 959.84887C560.3537999999999 960.14377 562.2699999999999 961.9777700000001 562.2699999999999 963.484C562.2699999999999 965.162 560.2379999999998 968.445 558.7419999999998 968.445C557.5659999999998 968.445 555.2839999999999 966.518 555.2839999999999 964.8050000000001C555.2839999999999 963.9585000000001 555.8181499999998 962.4745300000001 556.5848199999999 961.3430000000001L546.9429999999999 961.3430000000001ZM578.702 948.028C579.096 946.814 579.665 945.815 580.379 944.994C581.1270000000001 944.173 582.018 943.566 583.052 943.138C584.121 942.71 585.333 942.495 586.652 942.495C588.077 942.495 589.325 942.71 590.3950000000001 943.173C591.464 943.6370000000001 592.3560000000001 944.315 593.0680000000001 945.1370000000001C593.7820000000002 945.994 594.3160000000001 946.993 594.6720000000001 948.171C595.0290000000001 949.349 595.2070000000001 950.6700000000001 595.2070000000001 952.0970000000001C595.2070000000001 953.5970000000001 594.9940000000001 954.9530000000001 594.6010000000001 956.1670000000001C594.2090000000001 957.3800000000001 593.6390000000001 958.3790000000001 592.9260000000002 959.2010000000001C592.1770000000001 960.0220000000002 591.2860000000002 960.6280000000002 590.2170000000002 961.0560000000002C589.1470000000002 961.4850000000001 587.9710000000002 961.6990000000002 586.6520000000002 961.6990000000002C585.2260000000001 961.6990000000002 583.9780000000002 961.4850000000001 582.9100000000002 961.0210000000002C581.8760000000002 960.5570000000001 580.9840000000002 959.8790000000001 580.2720000000002 959.0580000000002C579.5580000000001 958.2010000000002 579.0240000000001 957.2020000000002 578.6670000000001 956.0240000000002C578.3110000000001 954.8100000000002 578.1330000000002 953.5250000000002 578.1330000000002 952.0970000000002C578.1330000000002 950.5980000000002 578.3110000000001 949.2420000000002 578.7020000000001 948.0280000000002ZM473.619 946.279L469.37800000000004 946.279C469.26900000000006 947.957 469.19800000000004 949.456 469.09100000000007 950.812C468.98500000000007 952.168 468.87800000000004 953.3820000000001 468.70000000000005 954.453C468.52000000000004 955.524 468.3070000000001 956.4879999999999 468.02200000000005 957.309C467.737 958.165 467.38100000000003 958.879 466.95300000000003 959.5219999999999C466.66700000000003 959.915 466.382 960.2719999999999 466.026 960.5219999999999C465.669 960.771 465.35 960.9849999999999 464.957 961.1279999999999C464.59999999999997 961.3069999999999 464.24399999999997 961.4139999999999 463.887 961.4499999999999C463.531 961.521 463.21 961.5569999999999 462.889 961.5569999999999C462.461 961.5569999999999 462.105 961.521 461.82 961.4499999999999C461.57 961.3779999999999 461.28499999999997 961.271 461 961.1279999999999L461.428 957.8449999999999C461.606 957.9159999999999 461.855 957.9519999999999 462.105 957.9519999999999C462.42600000000004 957.9519999999999 462.71200000000005 957.8799999999999 462.997 957.7369999999999C463.317 957.5939999999998 463.56600000000003 957.3799999999999 463.81600000000003 957.0589999999999C464.06500000000005 956.6669999999998 464.31500000000005 956.1309999999999 464.564 955.3819999999998C464.779 954.6669999999998 464.957 953.7389999999998 465.09900000000005 952.5969999999999C465.242 951.4189999999999 465.38400000000007 950.0629999999999 465.492 948.4559999999999C465.56300000000005 946.8499999999999 465.634 944.9939999999999 465.66900000000004 942.8519999999999L477.50500000000005 942.8519999999999L477.50500000000005 961.3429999999998L473.619 961.3429999999998ZM551.398 992.575C550.8290000000001 992.575 550.186 992.076 549.3670000000001 991.648C548.368 991.183 546.9060000000001 990.791 546.9060000000001 989.22C546.9060000000001 988.399 547.085 987.292 548.0480000000001 984.9730000000001C549.9730000000001 980.2610000000001 553.3580000000001 969.98 556.1750000000001 969.98C557.494 969.98 559.1690000000001 972.193 559.1690000000001 973.479C559.1690000000001 974.3720000000001 558.5630000000001 975.192 557.671 976.835C556.21 979.654 554.999 983.4010000000001 554.072 986.543C553.395 989.006 552.966 992.575 551.398 992.575ZM575.21 948.563C575.068 949.027 574.854 949.42 574.568 949.812C574.283 950.205 573.927 950.563 573.4639999999999 950.812C572.9999999999999 951.098 572.4649999999999 951.312 571.7869999999999 951.419L571.7869999999999 951.597C572.3939999999999 951.6329999999999 572.9279999999999 951.776 573.4269999999999 951.99C573.9619999999999 952.2040000000001 574.3899999999999 952.49 574.7829999999999 952.883C575.1389999999999 953.24 575.459 953.7030000000001 575.6729999999999 954.239C575.887 954.774 575.9929999999999 955.417 575.9929999999999 956.1310000000001C575.9929999999999 957.094 575.78 957.9520000000001 575.3169999999999 958.6300000000001C574.8889999999999 959.3080000000001 574.2829999999999 959.8790000000001 573.5709999999999 960.3070000000001C572.8569999999999 960.7710000000002 572.0369999999999 961.0920000000001 571.0749999999999 961.3070000000001C570.1479999999999 961.4850000000001 569.2209999999999 961.5920000000001 568.2239999999999 961.5920000000001C567.938 961.5920000000001 567.5099999999999 961.5920000000001 566.9759999999999 961.5920000000001C566.4759999999999 961.5920000000001 565.9059999999998 961.5920000000001 565.3349999999999 961.5570000000001C564.7299999999999 961.5570000000001 564.1229999999999 961.4850000000001 563.5179999999999 961.4500000000002C562.9119999999999 961.4140000000002 562.377 961.3070000000001 561.8779999999999 961.2000000000002L561.8779999999999 942.9950000000001C562.2349999999999 942.9230000000001 562.6619999999999 942.8880000000001 563.126 942.8170000000001C563.5889999999999 942.7810000000002 564.088 942.7100000000002 564.6229999999999 942.6740000000001C565.1569999999999 942.6380000000001 565.728 942.6380000000001 566.2979999999999 942.6030000000001C566.8319999999999 942.6030000000001 567.4029999999999 942.5670000000001 567.9729999999998 942.5670000000001C568.8999999999999 942.5670000000001 569.7919999999998 942.6380000000001 570.6819999999998 942.7810000000002C571.5379999999998 942.9230000000002 572.3229999999998 943.1380000000001 573.0349999999997 943.4950000000002C573.7489999999998 943.8520000000002 574.3179999999998 944.3150000000003 574.7459999999998 944.9220000000003C575.1739999999998 945.4930000000003 575.3879999999998 946.2790000000002 575.3879999999998 947.2070000000002C575.3879999999998 947.6710000000003 575.3169999999998 948.1350000000002 575.2099999999998 948.5630000000002ZM495.897 942.852L508.23 942.852L508.23 946.279L499.783 946.279L499.783 949.849C500.14000000000004 949.812 500.531 949.7410000000001 500.995 949.705C501.422 949.6700000000001 501.886 949.634 502.349 949.634C503.419 949.634 504.416 949.741 505.308 949.92C506.199 950.134 506.983 950.4549999999999 507.625 950.8829999999999C508.267 951.348 508.801 951.9189999999999 509.157 952.6679999999999C509.515 953.382 509.692 954.31 509.692 955.382C509.692 956.4159999999999 509.515 957.309 509.122 958.0939999999999C508.73 958.8789999999999 508.196 959.5219999999999 507.482 960.0219999999999C506.80600000000004 960.5569999999999 505.95000000000005 960.9499999999999 504.951 961.1999999999999C503.98900000000003 961.4849999999999 502.88300000000004 961.592 501.673 961.592C501.351 961.592 500.959 961.592 500.459 961.592C499.961 961.557 499.462 961.521 498.892 961.485C498.35699999999997 961.45 497.82099999999997 961.414 497.323 961.378C496.789 961.307 496.32599999999996 961.235 495.897 961.164ZM512.187 942.852L524.094 942.852L524.094 946.279L516.109 946.279L516.109 950.312L523.345 950.312L523.345 953.739L516.109 953.739L516.109 957.916L524.2370000000001 957.916L524.2370000000001 961.3430000000001L512.1870000000001 961.3430000000001ZM480.962 942.852L492.86699999999996 942.852L492.86699999999996 946.279L484.847 946.279L484.847 950.312L492.118 950.312L492.118 953.739L484.847 953.739L484.847 957.916L492.974 957.916L492.974 961.3430000000001L480.962 961.3430000000001ZM582.552 954.596C582.73 955.346 582.981 956.024 583.337 956.559C583.693 957.0939999999999 584.121 957.523 584.692 957.8449999999999C585.261 958.1299999999999 585.904 958.2719999999999 586.652 958.2719999999999C588.042 958.2719999999999 589.111 957.8079999999999 589.8960000000001 956.8449999999999C590.6800000000001 955.9169999999999 591.0730000000001 954.31 591.0730000000001 952.0969999999999C591.0730000000001 951.2049999999998 591.0010000000001 950.3839999999999 590.8230000000001 949.6339999999999C590.6800000000001 948.8849999999999 590.3950000000001 948.2419999999998 590.0390000000001 947.6709999999999C589.6820000000001 947.0999999999999 589.2180000000001 946.6719999999999 588.6840000000001 946.386C588.114 946.0649999999999 587.436 945.9219999999999 586.652 945.9219999999999C585.297 945.9219999999999 584.229 946.4219999999999 583.4440000000001 947.386C582.6590000000001 948.385 582.268 949.956 582.268 952.097C582.268 953.025 582.374 953.847 582.552 954.596ZM538.28 957.916L538.28 946.279L533.788 946.279C533.683 949.313 533.432 951.812 533.005 953.739C532.577 955.667 532.15 957.0590000000001 531.686 957.916ZM503.383 958.272C503.811 958.1650000000001 504.168 958.023 504.48699999999997 957.773C504.844 957.558 505.094 957.273 505.272 956.916C505.45 956.595 505.558 956.167 505.558 955.667C505.558 955.0600000000001 505.45 954.5600000000001 505.236 954.203C505.02299999999997 953.81 504.738 953.525 504.382 953.3109999999999C504.026 953.1329999999999 503.597 952.9899999999999 503.097 952.9179999999999C502.635 952.8469999999999 502.09999999999997 952.8109999999999 501.601 952.8109999999999C501.316 952.8109999999999 500.995 952.8469999999999 500.603 952.8829999999999C500.211 952.9179999999999 499.961 952.954 499.783 952.9899999999999L499.783 958.3079999999999C499.997 958.3439999999998 500.317 958.3789999999999 500.745 958.4149999999998C501.173 958.4149999999998 501.564 958.4509999999998 501.993 958.4509999999998C502.492 958.4509999999998 502.92 958.3789999999998 503.383 958.2719999999998ZM569.614 958.308C570.041 958.201 570.433 958.058 570.789 957.88C571.146 957.665 571.396 957.4159999999999 571.609 957.094C571.8230000000001 956.8090000000001 571.894 956.416 571.894 955.9530000000001C571.894 955.3820000000001 571.787 954.9530000000001 571.538 954.5960000000001C571.289 954.2750000000001 570.968 954.0250000000001 570.575 953.8470000000001C570.1840000000001 953.6680000000001 569.7560000000001 953.5970000000001 569.2560000000001 953.5250000000001C568.758 953.4890000000001 568.2950000000001 953.4540000000001 567.7950000000001 953.4540000000001L565.6220000000001 953.4540000000001L565.6220000000001 958.272C565.7280000000001 958.308 565.8710000000001 958.344 566.0840000000001 958.344C566.2980000000001 958.379 566.5120000000001 958.379 566.7610000000001 958.379C567.0120000000001 958.415 567.2610000000001 958.415 567.5100000000001 958.415C567.7600000000001 958.415 568.0090000000001 958.4509999999999 568.1880000000001 958.4509999999999C568.6870000000001 958.4509999999999 569.1500000000001 958.3789999999999 569.6140000000001 958.3079999999999ZM566.94 950.563C567.225 950.563 567.5100000000001 950.563 567.8660000000001 950.563C568.2590000000001 950.527 568.5440000000001 950.527 568.7930000000001 950.491C569.5410000000002 950.241 570.1480000000001 949.956 570.6820000000001 949.563C571.1820000000001 949.135 571.4310000000002 948.5989999999999 571.4310000000002 947.9209999999999C571.4310000000002 947.4569999999999 571.3240000000002 947.0999999999999 571.1460000000002 946.814C570.9330000000002 946.529 570.6820000000001 946.3149999999999 570.3620000000002 946.136C570.0410000000002 945.9939999999999 569.6850000000002 945.887 569.2560000000002 945.85C568.8650000000002 945.779 568.4370000000002 945.743 568.0440000000002 945.743C567.5100000000002 945.743 567.0470000000003 945.779 566.6190000000003 945.779C566.1910000000003 945.8149999999999 565.8710000000002 945.8149999999999 565.6220000000003 945.85L565.6220000000003 950.563ZM581.34 979.797C583.23 979.403 586.3670000000001 977.298 586.3670000000001 975.799C586.3670000000001 975.192 585.9390000000001 974.978 585.5480000000001 974.978C584.3710000000001 974.978 582.1610000000002 977.833 581.3400000000001 979.7969999999999ZM504.239 978.298L504.77299999999997 978.298L504.77299999999997 980.118L505.02299999999997 980.0110000000001L506.23499999999996 978.2980000000001L506.84 978.2980000000001L505.62899999999996 980.0110000000001L505.37899999999996 980.19L505.7 980.403L507.019 982.225L506.341 982.225L505.058 980.4390000000001L504.77299999999997 980.4390000000001L504.77299999999997 982.225L504.239 982.225L504.239 980.368L503.989 980.4390000000001L502.66999999999996 982.225L502.02899999999994 982.225L503.34799999999996 980.474L503.66799999999995 980.2610000000001L503.3829999999999 980.047L502.13499999999993 978.298L502.7779999999999 978.298L503.9889999999999 980.047L504.2389999999999 980.047ZM500.639 982.938L500.24600000000004 982.938L500.14000000000004 982.225L497.18000000000006 982.225L497.07300000000004 982.938L496.71700000000004 982.938L496.71700000000004 981.7239999999999L497.14500000000004 981.7239999999999C497.18000000000006 981.688 497.21600000000007 981.5809999999999 497.28700000000003 981.439C497.36 981.2959999999999 497.43100000000004 981.082 497.502 980.831C497.57300000000004 980.546 497.645 980.19 497.67900000000003 979.797C497.716 979.368 497.75000000000006 978.868 497.75000000000006 978.298L500.0690000000001 978.298L500.0690000000001 981.724L500.63900000000007 981.724ZM495.256 987.007C495.327 986.757 495.43399999999997 986.5429999999999 495.61199999999997 986.3649999999999C495.75499999999994 986.1859999999999 495.933 986.0429999999999 496.14599999999996 985.9709999999999C496.35999999999996 985.8639999999999 496.61099999999993 985.8289999999998 496.895 985.8289999999998C497.18 985.8289999999998 497.465 985.8639999999998 497.679 985.9709999999999C497.89399999999995 986.0779999999999 498.07199999999995 986.2219999999999 498.214 986.4009999999998C498.35699999999997 986.5789999999998 498.499 986.7929999999999 498.571 987.0429999999999C498.64200000000005 987.2919999999999 498.67900000000003 987.5429999999999 498.67900000000003 987.8639999999999C498.67900000000003 988.185 498.64200000000005 988.4699999999999 498.535 988.7199999999999C498.464 988.9709999999999 498.357 989.185 498.17900000000003 989.3629999999999C498.03600000000006 989.5409999999999 497.858 989.6479999999999 497.64500000000004 989.755C497.43100000000004 989.827 497.18000000000006 989.898 496.89500000000004 989.898C496.61100000000005 989.898 496.326 989.827 496.112 989.755C495.89700000000005 989.648 495.71900000000005 989.506 495.577 989.328C495.434 989.149 495.327 988.935 495.256 988.684C495.18399999999997 988.434 495.14899999999994 988.149 495.14899999999994 987.8639999999999C495.14899999999994 987.5429999999999 495.18399999999997 987.257 495.256 987.007ZM477.968 979.403C478.03900000000004 979.154 478.146 978.94 478.288 978.761C478.466 978.583 478.644 978.476 478.858 978.3689999999999C479.072 978.262 479.322 978.2269999999999 479.607 978.2269999999999C479.89200000000005 978.2269999999999 480.14300000000003 978.2619999999998 480.391 978.3689999999999C480.605 978.4759999999999 480.784 978.6189999999999 480.92600000000004 978.7969999999999C481.069 978.9759999999999 481.17500000000007 979.1899999999999 481.24700000000007 979.439C481.3180000000001 979.6899999999999 481.35300000000007 979.9749999999999 481.35300000000007 980.261C481.35300000000007 980.582 481.31800000000004 980.8679999999999 481.24700000000007 981.1179999999999C481.17500000000007 981.367 481.0690000000001 981.5809999999999 480.89000000000004 981.7589999999999C480.74800000000005 981.9379999999999 480.57000000000005 982.0809999999999 480.35600000000005 982.1519999999999C480.10600000000005 982.2599999999999 479.89200000000005 982.2959999999999 479.607 982.2959999999999C479.28700000000003 982.2959999999999 479.03700000000003 982.26 478.824 982.1519999999999C478.60900000000004 982.045 478.43100000000004 981.9019999999999 478.288 981.7239999999999C478.146 981.5459999999999 478.003 981.3319999999999 477.932 981.0819999999999C477.861 980.8309999999999 477.824 980.5819999999999 477.824 980.2609999999999C477.824 979.9399999999998 477.89500000000004 979.6539999999999 477.968 979.4029999999999ZM515.075 987.007C515.147 986.757 515.253 986.5429999999999 515.3960000000001 986.3649999999999C515.5740000000001 986.1859999999999 515.7520000000001 986.0429999999999 515.9670000000001 985.9709999999999C516.1810000000002 985.8639999999999 516.4290000000001 985.8289999999998 516.7150000000001 985.8289999999998C517.0000000000001 985.8289999999998 517.2490000000001 985.8639999999998 517.4630000000002 985.9709999999999C517.7130000000002 986.0779999999999 517.8910000000002 986.2219999999999 518.0340000000002 986.4009999999998C518.1760000000003 986.5789999999998 518.2830000000002 986.7929999999999 518.3540000000003 987.0429999999999C518.4250000000003 987.2919999999999 518.4610000000002 987.5429999999999 518.4610000000002 987.8639999999999C518.4610000000002 988.185 518.4250000000003 988.4699999999999 518.3540000000003 988.7199999999999C518.2830000000002 988.9709999999999 518.1410000000003 989.185 517.9980000000003 989.3629999999999C517.8560000000002 989.5409999999999 517.6760000000003 989.6479999999999 517.4280000000002 989.755C517.2130000000002 989.827 516.9640000000002 989.898 516.7150000000003 989.898C516.3940000000002 989.898 516.1440000000002 989.827 515.9300000000003 989.755C515.7160000000002 989.648 515.5380000000002 989.506 515.3600000000002 989.328C515.2180000000002 989.149 515.1100000000002 988.935 515.0390000000002 988.684C514.9670000000002 988.434 514.9330000000002 988.149 514.9330000000002 987.8639999999999C514.9330000000002 987.5429999999999 514.9670000000002 987.257 515.0750000000003 987.007ZM490.942 973.586L489.409 973.586L489.018 974.621L488.44699999999995 974.621L490.05099999999993 970.659L490.37199999999996 970.659L491.97599999999994 974.621L491.36999999999995 974.621ZM512.295 986.401L511.08199999999994 986.401C511.0469999999999 986.757 511.00999999999993 987.078 511.00999999999993 987.399C510.97599999999994 987.686 510.9389999999999 987.971 510.9049999999999 988.221C510.86799999999994 988.47 510.8339999999999 988.684 510.7969999999999 988.864C510.7259999999999 989.042 510.65399999999994 989.22 510.5829999999999 989.363C510.5119999999999 989.541 510.3689999999999 989.648 510.2629999999999 989.72C510.11999999999995 989.791 510.0129999999999 989.827 509.8709999999999 989.827C509.7629999999999 989.827 509.72799999999995 989.827 509.6569999999999 989.827C509.61999999999995 989.827 509.5489999999999 989.791 509.51499999999993 989.791L509.58599999999996 989.3280000000001C509.61999999999995 989.3280000000001 509.69199999999995 989.3280000000001 509.72799999999995 989.3280000000001C509.763 989.3280000000001 509.79999999999995 989.3280000000001 509.8709999999999 989.2920000000001C509.9069999999999 989.2920000000001 509.94199999999995 989.2560000000002 509.97799999999995 989.2200000000001C510.049 989.1850000000002 510.085 989.1130000000002 510.11999999999995 989.0780000000001C510.19199999999995 988.9710000000001 510.227 988.8270000000001 510.2629999999999 988.6840000000001C510.33399999999995 988.5060000000001 510.3689999999999 988.292 510.4049999999999 988.042C510.4409999999999 987.793 510.47599999999994 987.472 510.51199999999994 987.114C510.51199999999994 986.793 510.54799999999994 986.365 510.54799999999994 985.9L512.8649999999999 985.9L512.8649999999999 989.827L512.2949999999998 989.827ZM485.988 978.797L484.669 978.797L484.669 982.225L484.099 982.225L484.099 978.797L482.78 978.797L482.78 978.298L485.988 978.298ZM490.765 978.797L489.44599999999997 978.797L489.44599999999997 982.225L488.91099999999994 982.225L488.91099999999994 978.797L487.5919999999999 978.797L487.5919999999999 978.298L490.76499999999993 978.298ZM522.738 979.619L522.7750000000001 979.19L522.738 979.19L522.489 979.6540000000001L520.493 982.2250000000001L520.1370000000001 982.2250000000001L520.1370000000001 978.2980000000001L520.7070000000001 978.2980000000001L520.7070000000001 980.9040000000001L520.6360000000001 981.3320000000001L520.672 981.3320000000001L520.956 980.9040000000001L522.952 978.2980000000001L523.309 978.2980000000001L523.309 982.2250000000001L522.7379999999999 982.2250000000001ZM512.258 971.194L510.939 971.194L510.939 974.621L510.40500000000003 974.621L510.40500000000003 971.194L509.086 971.194L509.086 970.6949999999999L512.258 970.6949999999999ZM522.738 972.051L522.7750000000001 971.623L522.738 971.623L522.489 972.051L520.493 974.6210000000001L520.1370000000001 974.6210000000001L520.1370000000001 970.695L520.7070000000001 970.695L520.7070000000001 973.336L520.6360000000001 973.7280000000001L520.672 973.7280000000001L520.956 973.3000000000001L522.952 970.695L523.309 970.695L523.309 974.6210000000001L522.7379999999999 974.6210000000001ZM511.332 980.474L509.336 980.474L509.336 982.225L508.766 982.225L508.766 978.298L509.336 978.298L509.336 979.975L511.332 979.975L511.332 978.298L511.902 978.298L511.902 982.225L511.332 982.225ZM503.526 989.648C503.38300000000004 989.72 503.241 989.791 503.063 989.827C502.849 989.8629999999999 502.67 989.898 502.45599999999996 989.898C502.20699999999994 989.898 501.95699999999994 989.863 501.74399999999997 989.755C501.493 989.684 501.316 989.577 501.13699999999994 989.399C500.95899999999995 989.22 500.81699999999995 989.006 500.7099999999999 988.756C500.6389999999999 988.506 500.56699999999995 988.221 500.56699999999995 987.8639999999999C500.56699999999995 987.506 500.63899999999995 987.185 500.74499999999995 986.9359999999999C500.852 986.65 500.99499999999995 986.4359999999999 501.17299999999994 986.2939999999999C501.35099999999994 986.1139999999999 501.56399999999996 986.0069999999998 501.77799999999996 985.9359999999999C501.99299999999994 985.8639999999999 502.24199999999996 985.829 502.45599999999996 985.829C502.70699999999994 985.829 502.883 985.829 503.063 985.8639999999999C503.205 985.8999999999999 503.348 985.9359999999999 503.454 985.9709999999999L503.312 986.4359999999999C503.134 986.3649999999999 502.88300000000004 986.329 502.492 986.329C502.314 986.329 502.171 986.329 501.993 986.401C501.849 986.4359999999999 501.707 986.543 501.564 986.65C501.459 986.793 501.351 986.9359999999999 501.28000000000003 987.149C501.208 987.328 501.173 987.579 501.173 987.864C501.173 988.114 501.208 988.3280000000001 501.28000000000003 988.542C501.35100000000006 988.72 501.459 988.864 501.564 989.0060000000001C501.707 989.1490000000001 501.84900000000005 989.2200000000001 501.993 989.292C502.171 989.363 502.349 989.399 502.563 989.399C502.741 989.399 502.92 989.363 503.026 989.363C503.168 989.3280000000001 503.276 989.2560000000001 503.38300000000004 989.22ZM494.614 972.836L494.32899999999995 972.836L494.32899999999995 974.621L493.79299999999995 974.621L493.79299999999995 970.6949999999999L494.32899999999995 970.6949999999999L494.32899999999995 972.515L494.578 972.443L496.00399999999996 970.6949999999999L496.64599999999996 970.6949999999999L495.21999999999997 972.4079999999999L494.96999999999997 972.5859999999999L495.292 972.8009999999999L496.82399999999996 974.621L496.11199999999997 974.621ZM473.867 980.439L473.582 980.439L473.582 982.2249999999999L473.048 982.2249999999999L473.048 978.2979999999999L473.582 978.2979999999999L473.582 980.1179999999999L473.867 980.011L475.259 978.298L475.90000000000003 978.298L474.47400000000005 979.975L474.225 980.19L474.545 980.403L476.07800000000003 982.225L475.401 982.225ZM492.475 986.401L490.586 986.401L490.586 989.827L490.016 989.827L490.016 985.9L493.046 985.9L493.046 989.827L492.47499999999997 989.827ZM521.385 988.042L521.099 988.042L521.099 989.827L520.565 989.827L520.565 985.9L521.099 985.9L521.099 987.6859999999999L521.385 987.6149999999999L522.775 985.8999999999999L523.4159999999999 985.8999999999999L522.026 987.5789999999998L521.741 987.7569999999998L522.062 988.0069999999998L523.594 989.8269999999999L522.918 989.8269999999999ZM484.705 972.801L484.705 972.3720000000001L484.776 972.3720000000001C484.812 972.3720000000001 484.84700000000004 972.3720000000001 484.918 972.3720000000001C484.954 972.3720000000001 485.02500000000003 972.3720000000001 485.096 972.3720000000001C485.132 972.3360000000001 485.20300000000003 972.3360000000001 485.239 972.3360000000001C485.31 972.3360000000001 485.347 972.3360000000001 485.381 972.3360000000001C485.59499999999997 972.3010000000002 485.738 972.2290000000002 485.88 972.1580000000001C486.024 972.0510000000002 486.09499999999997 971.9080000000001 486.09499999999997 971.7300000000001C486.09499999999997 971.6230000000002 486.09499999999997 971.5160000000001 486.05899999999997 971.4430000000001C485.98799999999994 971.3720000000001 485.95199999999994 971.301 485.88 971.2650000000001C485.774 971.2300000000001 485.703 971.1940000000001 485.59499999999997 971.1580000000001C485.489 971.1580000000001 485.381 971.1230000000002 485.27399999999994 971.1230000000002C485.0609999999999 971.1230000000002 484.8829999999999 971.1580000000001 484.7049999999999 971.1940000000002C484.5609999999999 971.2300000000001 484.4189999999999 971.2650000000002 484.3469999999999 971.3010000000002L484.2049999999999 970.8370000000001C484.2419999999999 970.8010000000002 484.27599999999995 970.8010000000002 484.3839999999999 970.7660000000001C484.4559999999999 970.7660000000001 484.5269999999999 970.7300000000001 484.6329999999999 970.695C484.73999999999995 970.695 484.8469999999999 970.6590000000001 484.98999999999995 970.6590000000001C485.09599999999995 970.6590000000001 485.239 970.6590000000001 485.381 970.6590000000001C485.52399999999994 970.6590000000001 485.703 970.6590000000001 485.84599999999995 970.695C486.02399999999994 970.73 486.16599999999994 970.7660000000001 486.27299999999997 970.8370000000001C486.41499999999996 970.9080000000001 486.522 971.0160000000001 486.59299999999996 971.1580000000001C486.66599999999994 971.2650000000001 486.7 971.4080000000001 486.7 971.6230000000002C486.7 971.8010000000002 486.62899999999996 971.9800000000001 486.48699999999997 972.1580000000001C486.37999999999994 972.3010000000002 486.16599999999994 972.4430000000001 485.917 972.5150000000001C486.202 972.5860000000001 486.41499999999996 972.6570000000002 486.59299999999996 972.8360000000001C486.73699999999997 972.9800000000001 486.84299999999996 973.1930000000001 486.84299999999996 973.4790000000002C486.84299999999996 973.6930000000002 486.77099999999996 973.8710000000002 486.7 974.0140000000001C486.59299999999996 974.1930000000001 486.48699999999997 974.3000000000001 486.30899999999997 974.4070000000002C486.166 974.5140000000001 485.98799999999994 974.5850000000002 485.80899999999997 974.6210000000002C485.63199999999995 974.6920000000002 485.41799999999995 974.6920000000002 485.203 974.6920000000002C484.95399999999995 974.6920000000002 484.73999999999995 974.6920000000002 484.527 974.6570000000003C484.347 974.6210000000003 484.205 974.5850000000003 484.099 974.5500000000003L484.24199999999996 974.0490000000003C484.347 974.0850000000003 484.45599999999996 974.1210000000003 484.633 974.1560000000003C484.81199999999995 974.1930000000003 485.025 974.2290000000003 485.274 974.2290000000003C485.38100000000003 974.2290000000003 485.489 974.1930000000003 485.595 974.1560000000003C485.738 974.1210000000003 485.846 974.0850000000003 485.91700000000003 974.0490000000003C486.02400000000006 973.9780000000003 486.095 973.9060000000003 486.16600000000005 973.8000000000003C486.20200000000006 973.7280000000003 486.2370000000001 973.6210000000003 486.2370000000001 973.4790000000003C486.2370000000001 973.2650000000002 486.16600000000005 973.0870000000002 485.98800000000006 972.9800000000002C485.8090000000001 972.9080000000002 485.56100000000004 972.8360000000002 485.23900000000003 972.8010000000003C485.20300000000003 972.8010000000003 485.168 972.8010000000003 485.132 972.8010000000003C485.096 972.8010000000003 485.025 972.8010000000003 484.99 972.8010000000003ZM498.784 970.766C498.92699999999996 970.73 499.106 970.6949999999999 499.284 970.6949999999999C499.462 970.659 499.64 970.659 499.854 970.659C500.032 970.659 500.211 970.659 500.425 970.6949999999999C500.603 970.7299999999999 500.781 970.8009999999999 500.959 970.9079999999999C501.102 970.9799999999999 501.244 971.1229999999999 501.351 971.2649999999999C501.459 971.4429999999999 501.493 971.6229999999998 501.493 971.8729999999998C501.493 972.1219999999998 501.459 972.3009999999998 501.351 972.4789999999998C501.28 972.6569999999998 501.137 972.8009999999998 500.995 972.8719999999998C500.817 972.9799999999998 500.639 973.0869999999999 500.459 973.1219999999998C500.246 973.1579999999998 500.032 973.1929999999999 499.854 973.1929999999999C499.818 973.1929999999999 499.78299999999996 973.1929999999999 499.74699999999996 973.1929999999999C499.67599999999993 973.1929999999999 499.63999999999993 973.1929999999999 499.604 973.1929999999999C499.53299999999996 973.1929999999999 499.498 973.1929999999999 499.426 973.1579999999999C499.39099999999996 973.1579999999999 499.35499999999996 973.1579999999999 499.35499999999996 973.1579999999999L499.35499999999996 974.6209999999999L498.78399999999993 974.6209999999999ZM503.49 970.695L504.026 970.695L504.026 972.1930000000001C504.06 972.1930000000001 504.09700000000004 972.1930000000001 504.13100000000003 972.1930000000001C504.168 972.1930000000001 504.20200000000006 972.1930000000001 504.23900000000003 972.1930000000001C504.31000000000006 972.1580000000001 504.345 972.1580000000001 504.382 972.1580000000001C504.45300000000003 972.1580000000001 504.487 972.1580000000001 504.56 972.1580000000001C504.738 972.1580000000001 504.916 972.1930000000001 505.094 972.2290000000002C505.308 972.2650000000001 505.45 972.3360000000001 505.592 972.4080000000001C505.73499999999996 972.5150000000001 505.84299999999996 972.6210000000001 505.95 972.7640000000001C506.021 972.9440000000001 506.057 973.1220000000001 506.057 973.3710000000001C506.057 973.5860000000001 506.021 973.7640000000001 505.95 973.9420000000001C505.84299999999996 974.1210000000001 505.735 974.2650000000001 505.592 974.3720000000001C505.45 974.4780000000001 505.308 974.5500000000001 505.094 974.585C504.916 974.657 504.666 974.692 504.453 974.692C504.38199999999995 974.692 504.31 974.692 504.239 974.692C504.16799999999995 974.692 504.097 974.657 503.989 974.657C503.917 974.657 503.811 974.657 503.739 974.6210000000001C503.633 974.6210000000001 503.561 974.6210000000001 503.48999999999995 974.5850000000002ZM514.148 970.695L514.719 970.695L514.719 972.1930000000001C514.719 972.1930000000001 514.754 972.1930000000001 514.7900000000001 972.1930000000001C514.825 972.1930000000001 514.8620000000001 972.1930000000001 514.9330000000001 972.1930000000001C514.9670000000001 972.1580000000001 515.0040000000001 972.1580000000001 515.0750000000002 972.1580000000001C515.1100000000001 972.1580000000001 515.1470000000002 972.1580000000001 515.2180000000002 972.1580000000001C515.3960000000002 972.1580000000001 515.6100000000002 972.1930000000001 515.7880000000002 972.2290000000002C515.9670000000002 972.2650000000001 516.1090000000003 972.3360000000001 516.2520000000003 972.4080000000001C516.3940000000003 972.5150000000001 516.5000000000003 972.6210000000001 516.6080000000003 972.7640000000001C516.6790000000003 972.9440000000001 516.7150000000003 973.1220000000001 516.7150000000003 973.3710000000001C516.7150000000003 973.5860000000001 516.6790000000003 973.7640000000001 516.6080000000003 973.9420000000001C516.5370000000003 974.1210000000001 516.4290000000003 974.2650000000001 516.2860000000003 974.3720000000001C516.1440000000002 974.4780000000001 515.9670000000003 974.5500000000001 515.7520000000003 974.585C515.5740000000003 974.657 515.3600000000002 974.692 515.1100000000002 974.692C515.0390000000002 974.692 515.0040000000002 974.692 514.8960000000002 974.692C514.8250000000002 974.692 514.7540000000001 974.657 514.6480000000001 974.657C514.5760000000001 974.657 514.4690000000002 974.657 514.3970000000002 974.6210000000001C514.2910000000002 974.6210000000001 514.2190000000002 974.6210000000001 514.1480000000001 974.5850000000002ZM514.148 978.298L514.719 978.298L514.719 979.797C514.719 979.797 514.754 979.797 514.7900000000001 979.797C514.825 979.7620000000001 514.8620000000001 979.7620000000001 514.9330000000001 979.7620000000001C514.9670000000001 979.7620000000001 515.0040000000001 979.7620000000001 515.0750000000002 979.7620000000001C515.1100000000001 979.7620000000001 515.1470000000002 979.7620000000001 515.2180000000002 979.7620000000001C515.3960000000002 979.7620000000001 515.6100000000002 979.7620000000001 515.7880000000002 979.797C515.9670000000002 979.833 516.1090000000003 979.904 516.2520000000003 980.0110000000001C516.3940000000003 980.0820000000001 516.5000000000003 980.2250000000001 516.6080000000003 980.368C516.6790000000003 980.5100000000001 516.7150000000003 980.724 516.7150000000003 980.94C516.7150000000003 981.153 516.6790000000003 981.3670000000001 516.6080000000003 981.546C516.5370000000003 981.6880000000001 516.4290000000003 981.831 516.2860000000003 981.9380000000001C516.1440000000002 982.0450000000001 515.9670000000003 982.1520000000002 515.7520000000003 982.1890000000001C515.5740000000003 982.2600000000001 515.3600000000002 982.2600000000001 515.1100000000002 982.2600000000001C515.0390000000002 982.2600000000001 515.0040000000002 982.2600000000001 514.8960000000002 982.2600000000001C514.8250000000002 982.2600000000001 514.7540000000001 982.2600000000001 514.6480000000001 982.2600000000001C514.5760000000001 982.2600000000001 514.4690000000002 982.2250000000001 514.3970000000002 982.2250000000001C514.2910000000002 982.2250000000001 514.2190000000002 982.1890000000002 514.1480000000001 982.1890000000002ZM505.487 985.9L507.874 985.9L507.874 986.401L506.057 986.401L506.057 987.579L507.696 987.579L507.696 988.078L506.057 988.078L506.057 989.328L507.91 989.328L507.91 989.827L505.487 989.827ZM492.654 978.298L495.007 978.298L495.007 978.797L493.188 978.797L493.188 979.975L494.864 979.975L494.864 980.474L493.188 980.474L493.188 981.724L495.041 981.724L495.041 982.225L492.654 982.225ZM495.79 988.434C495.862 988.649 495.933 988.7909999999999 496.004 988.935C496.112 989.078 496.218 989.185 496.36 989.256C496.539 989.3629999999999 496.682 989.399 496.89500000000004 989.399C497.25200000000007 989.399 497.53600000000006 989.256 497.75000000000006 989.006C497.96500000000003 988.7909999999999 498.07200000000006 988.399 498.07200000000006 987.8639999999999C498.07200000000006 987.6499999999999 498.03600000000006 987.435 498.00100000000003 987.257C497.96500000000003 987.078 497.894 986.9 497.78700000000003 986.7929999999999C497.67900000000003 986.6499999999999 497.57300000000004 986.5079999999999 497.43100000000004 986.4359999999999C497.28700000000003 986.3649999999999 497.10900000000004 986.329 496.89500000000004 986.329C496.53900000000004 986.329 496.254 986.4359999999999 496.04100000000005 986.6859999999999C495.8260000000001 986.9359999999999 495.71900000000005 987.328 495.71900000000005 987.8639999999999C495.71900000000005 988.078 495.75500000000005 988.256 495.7900000000001 988.434ZM515.61 988.434C515.645 988.649 515.716 988.7909999999999 515.823 988.935C515.894 989.078 516.038 989.185 516.1809999999999 989.256C516.323 989.3629999999999 516.4999999999999 989.399 516.7149999999999 989.399C517.0709999999999 989.399 517.357 989.256 517.5709999999999 989.006C517.7839999999999 988.7909999999999 517.891 988.399 517.891 987.8639999999999C517.891 987.6499999999999 517.856 987.435 517.819 987.257C517.7479999999999 987.078 517.6759999999999 986.9 517.6049999999999 986.7929999999999C517.4999999999999 986.6499999999999 517.3909999999998 986.5079999999999 517.2489999999999 986.4359999999999C517.0709999999999 986.3649999999999 516.8929999999999 986.329 516.7149999999999 986.329C516.357 986.329 516.0719999999999 986.4359999999999 515.8589999999999 986.6859999999999C515.6449999999999 986.9359999999999 515.5379999999999 987.328 515.5379999999999 987.8639999999999C515.5379999999999 988.078 515.5739999999998 988.256 515.6099999999999 988.434ZM478.502 980.868C478.53700000000003 981.047 478.60900000000004 981.225 478.716 981.3320000000001C478.824 981.4750000000001 478.92900000000003 981.6170000000001 479.072 981.6880000000001C479.214 981.7590000000001 479.39300000000003 981.7950000000001 479.607 981.7950000000001C479.963 981.7950000000001 480.24800000000005 981.6880000000001 480.46200000000005 981.4390000000001C480.677 981.1890000000001 480.78400000000005 980.796 480.78400000000005 980.2610000000001C480.78400000000005 980.047 480.74800000000005 979.868 480.71200000000005 979.69C480.641 979.476 480.605 979.3320000000001 480.499 979.19C480.391 979.047 480.285 978.94 480.14300000000003 978.8330000000001C480.00000000000006 978.7610000000001 479.821 978.7260000000001 479.607 978.7260000000001C479.25100000000003 978.7260000000001 478.966 978.8330000000001 478.752 979.1180000000002C478.53700000000003 979.3680000000002 478.431 979.7260000000001 478.431 980.2610000000002C478.431 980.4740000000002 478.466 980.6890000000002 478.502 980.8680000000002ZM499.533 981.724L499.533 978.797L498.25 978.797C498.25 979.19 498.214 979.547 498.179 979.868C498.143 980.154 498.10699999999997 980.4390000000001 498.07199999999995 980.6890000000001C498.03599999999994 980.94 497.9649999999999 981.118 497.92999999999995 981.296C497.85799999999995 981.475 497.787 981.6170000000001 497.74999999999994 981.724ZM499.569 971.158C499.462 971.158 499.391 971.158 499.355 971.194L499.355 972.6569999999999C499.355 972.6929999999999 499.391 972.6929999999999 499.42600000000004 972.6929999999999C499.46200000000005 972.6929999999999 499.5330000000001 972.6929999999999 499.569 972.6929999999999C499.60400000000004 972.6929999999999 499.64000000000004 972.6929999999999 499.711 972.6929999999999C499.747 972.6929999999999 499.783 972.6929999999999 499.783 972.6929999999999C499.925 972.6929999999999 500.069 972.6929999999999 500.211 972.6569999999999C500.317 972.6569999999999 500.459 972.621 500.567 972.55C500.67400000000004 972.4789999999999 500.745 972.4079999999999 500.817 972.3009999999999C500.88800000000003 972.193 500.88800000000003 972.0509999999999 500.88800000000003 971.8729999999999C500.88800000000003 971.7299999999999 500.88800000000003 971.6229999999999 500.817 971.516C500.745 971.443 500.67400000000004 971.336 500.567 971.3009999999999C500.459 971.2299999999999 500.354 971.194 500.211 971.194C500.103 971.158 499.961 971.158 499.854 971.158C499.74699999999996 971.158 499.64 971.158 499.56899999999996 971.158ZM517.32 978.298L517.8910000000001 978.298L517.8910000000001 982.225L517.32 982.225ZM517.32 970.695L517.8910000000001 970.695L517.8910000000001 974.6210000000001L517.32 974.6210000000001ZM515.538 974.156C515.645 974.121 515.7520000000001 974.049 515.859 973.978C515.9300000000001 973.906 516.0010000000001 973.8349999999999 516.072 973.728C516.109 973.6569999999999 516.144 973.5139999999999 516.144 973.4069999999999C516.144 973.2289999999999 516.109 973.122 516.038 973.0149999999999C516.001 972.9439999999998 515.9300000000001 972.8719999999998 515.823 972.8009999999998C515.752 972.7639999999998 515.645 972.6929999999999 515.5029999999999 972.6929999999999C515.396 972.6569999999999 515.2529999999999 972.6569999999999 515.1099999999999 972.6569999999999C515.0389999999999 972.6569999999999 514.9669999999999 972.6569999999999 514.8959999999998 972.6569999999999C514.7899999999998 972.6929999999999 514.7539999999998 972.6929999999999 514.7189999999998 972.6929999999999L514.7189999999998 974.1559999999998C514.7539999999998 974.1559999999998 514.8249999999998 974.1929999999999 514.8959999999998 974.1929999999999C514.9669999999999 974.1929999999999 515.0749999999998 974.1929999999999 515.1469999999998 974.1929999999999C515.2889999999999 974.1929999999999 515.4319999999998 974.1559999999998 515.5379999999998 974.1559999999998ZM504.88 974.156C504.987 974.121 505.094 974.049 505.201 973.978C505.27200000000005 973.906 505.344 973.8349999999999 505.379 973.728C505.45000000000005 973.6569999999999 505.45000000000005 973.5139999999999 505.45000000000005 973.4069999999999C505.45000000000005 973.2289999999999 505.45000000000005 973.122 505.379 973.0149999999999C505.344 972.9439999999998 505.23600000000005 972.8719999999998 505.165 972.8009999999998C505.058 972.7639999999998 504.951 972.6929999999999 504.844 972.6929999999999C504.738 972.6569999999999 504.59499999999997 972.6569999999999 504.453 972.6569999999999C504.38199999999995 972.6569999999999 504.31 972.6569999999999 504.239 972.6569999999999C504.131 972.6929999999999 504.06 972.6929999999999 504.02599999999995 972.6929999999999L504.02599999999995 974.1559999999998C504.097 974.1559999999998 504.16799999999995 974.1929999999999 504.239 974.1929999999999C504.31 974.1929999999999 504.38199999999995 974.1929999999999 504.48699999999997 974.1929999999999C504.631 974.1929999999999 504.73799999999994 974.1559999999998 504.87999999999994 974.1559999999998ZM515.538 981.724C515.645 981.6880000000001 515.7520000000001 981.653 515.859 981.581C515.9300000000001 981.51 516.0010000000001 981.439 516.072 981.332C516.109 981.225 516.144 981.1179999999999 516.144 980.975C516.144 980.831 516.109 980.724 516.038 980.6170000000001C516.001 980.5100000000001 515.9300000000001 980.4390000000001 515.823 980.403C515.752 980.332 515.645 980.296 515.5029999999999 980.296C515.396 980.2610000000001 515.2529999999999 980.2610000000001 515.1099999999999 980.2610000000001C515.0389999999999 980.2610000000001 514.9669999999999 980.2610000000001 514.8959999999998 980.2610000000001C514.7899999999998 980.2610000000001 514.7539999999998 980.296 514.7189999999998 980.296L514.7189999999998 981.759C514.7539999999998 981.759 514.8249999999998 981.759 514.8959999999998 981.759C514.9669999999999 981.795 515.0749999999998 981.795 515.1469999999998 981.795C515.2889999999999 981.795 515.4319999999998 981.759 515.5379999999998 981.7239999999999ZM506.663 970.695L507.196 970.695L507.196 974.6210000000001L506.663 974.6210000000001ZM489.589 973.122L490.799 973.122L490.33599999999996 972.015L490.19399999999996 971.408L490.051 972.015ZM521.206 977.334C521.241 977.476 521.314 977.583 521.385 977.655C521.491 977.726 521.599 977.762 521.775 977.762C521.919 977.762 522.062 977.726 522.1329999999999 977.655C522.2399999999999 977.583 522.3109999999999 977.476 522.3109999999999 977.334L522.775 977.4409999999999C522.7379999999999 977.655 522.6329999999999 977.833 522.453 977.9399999999999C522.3109999999999 978.0469999999999 522.062 978.1179999999999 521.775 978.1179999999999C521.456 978.1179999999999 521.241 978.0469999999999 521.028 977.9399999999999C520.85 977.8689999999999 520.743 977.6909999999999 520.707 977.4759999999999ZM521.206 969.766C521.241 969.8729999999999 521.314 969.98 521.385 970.0509999999999C521.491 970.1229999999999 521.599 970.16 521.775 970.16C521.919 970.16 522.062 970.1229999999999 522.1329999999999 970.0509999999999C522.2399999999999 969.9799999999999 522.3109999999999 969.8729999999999 522.3109999999999 969.766L522.775 969.8729999999999C522.7379999999999 970.0509999999999 522.6329999999999 970.2309999999999 522.453 970.338C522.3109999999999 970.4449999999999 522.062 970.516 521.775 970.516C521.456 970.516 521.241 970.481 521.028 970.3729999999999C520.85 970.2669999999999 520.743 970.087 520.707 969.8729999999999Z " fill="#ffffff" fill-opacity="1" transform="matrix(1,0,0,1,-461,-934)"></path></svg>