<svg id="SvgjsSvg1000" xmlns="http://www.w3.org/2000/svg" version="1.1" xmlns:xlink="http://www.w3.org/1999/xlink" xmlns:svgjs="http://svgjs.com/svgjs" width="322" height="94" viewBox="0 0 322 94"><title>Фигура 9</title><desc>Created with Avocode.</desc><defs id="SvgjsDefs1001"></defs><path id="SvgjsPath1007" d="M685.576 151.819C689.44 151.53799999999998 691.679 150.188 691.679 150.188C691.679 150.188 689.328 136.796 677.01 128.52499999999998C677.01 128.52499999999998 677.178 115.75399999999998 680.538 108.71999999999997C680.538 108.71999999999997 684.234 110.18299999999996 691.624 118.96099999999997C691.624 118.96099999999997 688.097 110.97099999999998 681.7710000000001 105.17599999999997C681.7710000000001 105.17599999999997 683.225 101.46199999999997 685.129 97.86199999999997C685.129 97.86199999999997 692.1270000000001 105.62599999999996 694.312 109.90199999999996C694.312 109.90199999999996 692.856 103.71299999999997 686.753 94.59759999999996C686.753 94.59759999999996 688.601 90.88439999999996 690.0550000000001 88.69029999999995C690.0550000000001 88.69029999999995 695.9350000000001 97.13009999999996 698.1740000000001 102.02599999999995C698.1740000000001 102.02599999999995 697.1110000000001 96.11749999999995 692.1270000000001 85.25869999999995C692.1270000000001 85.25869999999995 695.9350000000001 80.02559999999994 697.839 77.99999999999994C697.839 77.99999999999994 711.445 112.60299999999995 705.118 143.04199999999994C705.118 143.04199999999994 706.10757 142.71857999999995 708.88309 142.15999999999994C707.40949 142.44249999999994 706.44086 142.66719999999995 705.845 142.81699999999995C705.845 142.81699999999995 712.172 118.56699999999995 705.23 90.94089999999994L714.244 85.08969999999994C714.244 85.08969999999994 722.52638 105.50260999999993 711.51022 141.66273999999993C712.61768 141.46449999999993 713.89597 141.24818999999994 715.365 141.01599999999993C723.146 139.83599999999993 727.627 140.56599999999995 732.274 139.61099999999993C736.864 138.70899999999995 746.496 136.73999999999992 753.27 133.36499999999992C760.1 129.93199999999993 762.507 128.92099999999994 766.875 127.84999999999992C771.186 126.83899999999993 783 128.63799999999992 783 128.63799999999992C783 128.63799999999992 763.404 133.8149999999999 752.599 141.46799999999993C741.8470000000001 149.17499999999993 735.912 155.70099999999994 729.7520000000001 159.86499999999992C723.6510000000001 164.0289999999999 704.783 175.11399999999992 690.6730000000001 167.29299999999992C676.5070000000001 159.52799999999993 676.8420000000001 150.4699999999999 676.8420000000001 150.4699999999999C676.8420000000001 150.4699999999999 681.6570000000002 152.10199999999992 685.5760000000001 151.8189999999999ZM587.59071 121.92985L587.483 121.099L567.2139999999999 121.099L566.5429999999999 126.275L562.1759999999999 126.275L562.1759999999999 115.69800000000001L565.5339999999999 115.69800000000001C565.7569999999998 115.36000000000001 566.0929999999998 114.74100000000001 566.5969999999999 113.67200000000001C567.0459999999998 112.659 567.4929999999998 111.19600000000001 567.9969999999998 109.284C568.4449999999998 107.37100000000001 568.8379999999999 104.95 569.2299999999998 102.138C569.5649999999998 99.2681 569.6769999999998 95.89250000000001 569.6209999999998 91.9535L588.5459999999997 91.9535L588.5459999999997 115.69800000000001L592.5209999999997 115.69800000000001L592.5209999999997 122.59259C594.2985499999998 123.79765 595.9359999999997 125.59057 595.9359999999997 126.95100000000001C595.9359999999997 128.582 594.3129999999996 130.607 588.4339999999997 142.255C583.2819999999997 152.439 580.2589999999998 157.221 580.2589999999998 159.921C580.2589999999998 160.82299999999998 580.5389999999998 161.328 581.5459999999998 161.328C582.4989999999998 161.328 583.3399999999998 160.991 586.3619999999999 160.034C589.3849999999999 159.022 590.1699999999998 158.74099999999999 590.7849999999999 158.74099999999999C592.1279999999998 158.74099999999999 593.7519999999998 159.696 593.7519999999998 161.778C593.7519999999998 169.375 581.4919999999998 171.007 577.4019999999998 171.007C572.4759999999998 171.007 569.7329999999998 165.886 569.7329999999998 161.666C569.7329999999998 161.272 569.5089999999998 154.353 583.1159999999999 129.089C584.7491199999998 126.05842 586.0374799999998 123.1851 587.5907099999998 121.92985ZM630.986 145.631C628.075 152.664 627.404 155.645 625.8919999999999 159.865C625.276 161.553 624.603 163.24200000000002 624.0999999999999 164.98600000000002C623.7639999999999 166.16700000000003 623.54 167.34900000000002 623.0369999999999 168.53000000000003C622.084 170.66800000000003 620.6289999999999 171.00700000000003 619.9559999999999 171.00700000000003C619.5649999999999 171.00700000000003 618.4459999999999 170.89400000000003 616.2049999999999 169.20600000000005C614.4139999999999 167.91100000000006 613.6299999999999 166.73100000000005 613.6299999999999 164.42200000000005C613.6299999999999 160.93500000000006 618.2199999999999 152.04500000000004 620.1799999999998 146.64300000000006C618.1079999999998 146.81200000000007 618.1639999999999 145.57500000000005 617.7729999999998 144.05600000000007C617.4929999999998 142.98500000000007 616.9339999999997 141.74900000000008 616.9339999999997 140.84700000000007C616.9339999999997 139.27400000000006 620.6289999999998 137.52900000000005 623.5399999999997 137.02100000000007C630.0909999999998 122.28100000000008 636.4739999999997 119.97400000000007 639.8339999999997 119.97400000000007C642.8559999999998 119.97400000000007 645.8789999999997 122.16800000000008 645.8789999999997 126.05000000000007C645.8789999999997 130.43800000000007 643.5279999999997 132.91600000000005 640.8409999999997 132.91600000000005C638.4339999999996 132.91600000000005 637.5919999999996 131.45200000000006 637.2569999999997 130.66300000000007C636.3619999999997 131.67700000000008 635.3529999999997 133.02800000000008 634.0099999999998 136.12200000000007C635.0729999999998 136.01000000000008 635.5209999999997 136.01000000000008 635.8579999999997 136.01000000000008C637.8179999999998 136.01000000000008 640.5609999999997 141.35500000000008 640.5609999999997 142.76100000000008C640.5609999999997 144.2800000000001 639.1049999999997 144.61800000000008 637.5919999999996 144.84200000000007C634.5139999999997 145.29200000000006 635.1289999999997 144.84200000000007 630.9859999999996 145.63100000000006ZM647.839 155.027C647.503 155.982 647.1120000000001 157.446 647.1120000000001 158.85299999999998C647.1120000000001 159.64 647.0000000000001 161.49699999999999 649.071 161.49699999999999C650.5840000000001 161.49699999999999 652.376 160.99099999999999 654.39 160.034C657.358 158.628 658.4209999999999 157.89499999999998 659.15 157.89499999999998C659.765 157.89499999999998 660.942 158.34699999999998 660.942 160.20399999999998C660.942 164.36599999999999 660.437 164.986 658.085 166.504C654.39 168.81199999999998 650.64 169.712 647.671 169.712C641.792 169.712 637.6500000000001 166.22299999999998 637.6500000000001 159.753C637.6500000000001 148.219 649.6870000000001 134.433 658.085 134.433C663.014 134.433 666.875 138.934 666.875 143.379C666.875 149.851 660.157 153.959 656.293 155.926C655.0070000000001 156.60299999999998 653.718 157.165 652.318 157.165C650.64 157.165 648.736 155.701 647.8389999999999 155.027ZM595.993 91.9535L614.692 91.9535L614.692 97.35510000000001L602.15 97.35510000000001L602.15 103.71300000000001L613.518 103.71300000000001L613.518 109.114L602.15 109.114L602.15 115.69800000000001L614.9159999999999 115.69800000000001L614.9159999999999 118.74445C617.05756 119.2095 620.068 122.10153 620.068 124.475C620.068 127.11999999999999 616.876 132.296 614.5269999999999 132.296C612.6779999999999 132.296 609.0949999999999 129.25799999999998 609.0949999999999 126.55799999999999C609.0949999999999 125.22283999999999 609.9342499999999 122.88287 611.1387599999999 121.09899999999999L595.9929999999999 121.09899999999999ZM645.879 100.112C646.496 98.1991 647.391 96.6231 648.5120000000001 95.3295C649.687 94.0355 651.0870000000001 93.079 652.711 92.4035C654.39 91.7289 656.293 91.39139999999999 658.365 91.39139999999999C660.605 91.39139999999999 662.564 91.7289 664.244 92.45949999999999C665.9250000000001 93.19149999999999 667.325 94.2605 668.4440000000001 95.55499999999999C669.5640000000001 96.90509999999999 670.403 98.4801 670.9630000000001 100.33699999999999C671.5240000000001 102.19399999999999 671.8040000000001 104.27599999999998 671.8040000000001 106.52599999999998C671.8040000000001 108.88899999999998 671.4680000000001 111.02699999999999 670.8510000000001 112.94099999999999C670.2360000000001 114.85399999999998 669.3400000000001 116.42899999999999 668.2200000000001 117.72399999999999C667.0430000000001 119.017 665.6450000000001 119.97399999999999 663.9650000000001 120.64899999999999C662.2850000000002 121.32399999999998 660.4370000000001 121.66099999999999 658.3650000000001 121.66099999999999C656.1260000000001 121.66099999999999 654.1660000000002 121.32399999999998 652.4880000000002 120.59199999999998C650.8640000000001 119.86199999999998 649.4630000000002 118.79299999999998 648.3440000000002 117.49799999999999C647.2240000000002 116.148 646.3850000000002 114.573 645.8230000000002 112.71499999999999C645.2640000000002 110.80199999999999 644.9840000000002 108.77699999999999 644.9840000000002 106.52599999999998C644.9840000000002 104.16399999999999 645.2640000000001 102.02599999999998 645.8790000000001 100.11199999999998ZM480.821 97.3551L474.15900000000005 97.3551C473.98900000000003 100 473.87700000000007 102.363 473.70900000000006 104.50099999999999C473.5420000000001 106.639 473.3740000000001 108.55199999999999 473.09400000000005 110.23899999999999C472.81300000000005 111.928 472.47700000000003 113.44699999999999 472.02900000000005 114.74099999999999C471.58200000000005 116.09199999999998 471.02200000000005 117.21699999999998 470.35100000000006 118.22999999999999C469.90200000000004 118.84899999999999 469.45400000000006 119.41099999999999 468.89500000000004 119.80499999999999C468.33400000000006 120.199 467.83200000000005 120.53599999999999 467.21500000000003 120.761C466.65500000000003 121.04299999999999 466.096 121.21199999999999 465.535 121.268C464.975 121.38 464.47200000000004 121.437 463.96700000000004 121.437C463.295 121.437 462.73600000000005 121.38 462.28800000000007 121.268C461.8960000000001 121.156 461.44700000000006 120.987 461.00000000000006 120.761L461.6720000000001 115.586C461.95200000000006 115.698 462.3420000000001 115.754 462.7360000000001 115.754C463.2390000000001 115.754 463.6890000000001 115.64200000000001 464.1360000000001 115.41600000000001C464.6400000000001 115.19100000000002 465.03100000000006 114.85400000000001 465.42300000000006 114.34700000000001C465.8140000000001 113.72800000000001 466.2080000000001 112.88400000000001 466.59800000000007 111.703C466.93500000000006 110.578 467.2150000000001 109.114 467.4390000000001 107.31400000000001C467.6620000000001 105.45700000000001 467.8860000000001 103.319 468.0560000000001 100.787C468.1680000000001 98.25510000000001 468.2800000000001 95.32950000000001 468.3340000000001 91.9535L486.9240000000001 91.9535L486.9240000000001 121.099L480.8210000000001 121.099ZM602.991 170.331C602.097 170.331 601.088 169.54399999999998 599.8009999999999 168.869C598.2309999999999 168.136 595.9359999999999 167.518 595.9359999999999 165.042C595.9359999999999 163.747 596.2169999999999 162.00300000000001 597.7289999999999 158.347C600.752 150.92000000000002 606.0699999999999 134.714 610.4949999999999 134.714C612.5669999999999 134.714 615.1979999999999 138.204 615.1979999999999 140.22899999999998C615.1979999999999 141.636 614.2449999999999 142.92899999999997 612.8439999999998 145.51899999999998C610.5489999999999 149.96399999999997 608.6469999999998 155.86999999999998 607.1909999999998 160.82299999999998C606.1279999999998 164.70499999999998 605.4549999999998 170.331 602.9909999999998 170.331ZM640.393 100.957C640.1700000000001 101.687 639.8340000000001 102.30699999999999 639.384 102.925C638.937 103.544 638.378 104.107 637.65 104.50099999999999C636.9209999999999 104.94999999999999 636.082 105.28899999999999 635.0169999999999 105.457L635.0169999999999 105.738C635.9699999999999 105.795 636.809 106.019 637.592 106.358C638.434 106.69500000000001 639.105 107.14500000000001 639.722 107.76400000000001C640.281 108.32700000000001 640.785 109.058 641.12 109.90200000000002C641.456 110.74600000000001 641.624 111.75900000000001 641.624 112.88400000000001C641.624 114.40300000000002 641.288 115.75400000000002 640.561 116.82300000000001C639.89 117.89200000000001 638.937 118.793 637.818 119.46700000000001C636.698 120.19900000000001 635.409 120.70500000000001 633.899 121.043C632.442 121.32400000000001 630.986 121.49300000000001 629.42 121.49300000000001C628.9699999999999 121.49300000000001 628.299 121.49300000000001 627.4599999999999 121.49300000000001C626.675 121.49300000000001 625.78 121.49300000000001 624.8829999999999 121.43700000000001C623.9319999999999 121.43700000000001 622.9789999999999 121.32400000000001 622.0279999999999 121.26800000000001C621.0769999999999 121.21200000000002 620.2359999999999 121.04300000000002 619.4529999999999 120.87500000000001L619.4529999999999 92.17850000000001C620.0119999999998 92.06600000000002 620.6839999999999 92.00990000000002 621.4129999999999 91.89740000000002C622.1399999999999 91.84140000000002 622.9229999999999 91.72890000000002 623.7639999999999 91.67240000000002C624.603 91.61640000000003 625.4999999999999 91.61640000000003 626.3949999999999 91.56030000000003C627.2339999999999 91.56030000000003 628.1309999999999 91.50390000000003 629.0259999999998 91.50390000000003C630.4819999999999 91.50390000000003 631.8829999999998 91.61640000000003 633.2809999999998 91.84140000000004C634.6259999999999 92.06600000000003 635.8579999999998 92.40350000000004 636.9769999999999 92.96640000000004C638.0979999999998 93.52940000000004 638.9929999999998 94.26050000000004 639.6639999999999 95.21700000000004C640.3369999999999 96.11750000000004 640.6729999999999 97.35510000000004 640.6729999999999 98.81850000000004C640.6729999999999 99.54920000000004 640.5609999999999 100.28100000000005 640.3929999999999 100.95700000000004ZM515.814 91.9535L535.1859999999999 91.9535L535.1859999999999 97.35510000000001L521.9169999999999 97.35510000000001L521.9169999999999 102.98200000000001C522.478 102.92500000000001 523.0919999999999 102.81300000000002 523.8209999999999 102.75600000000001C524.492 102.70000000000002 525.2209999999999 102.64400000000002 525.9479999999999 102.64400000000002C527.6289999999999 102.64400000000002 529.1949999999998 102.81300000000002 530.5949999999999 103.09500000000001C531.9959999999999 103.43200000000002 533.2259999999999 103.93800000000002 534.2349999999999 104.61300000000001C535.2439999999999 105.34500000000001 536.0829999999999 106.24500000000002 536.6419999999999 107.42700000000002C537.204 108.55200000000002 537.481 110.01400000000002 537.481 111.70300000000002C537.481 113.33400000000002 537.204 114.74100000000001 536.587 115.97900000000001C535.971 117.21700000000001 535.132 118.23000000000002 534.011 119.01700000000001C532.949 119.86200000000001 531.6039999999999 120.48 530.036 120.87500000000001C528.524 121.32400000000001 526.7879999999999 121.49300000000001 524.886 121.49300000000001C524.38 121.49300000000001 523.765 121.49300000000001 522.98 121.49300000000001C522.197 121.43700000000001 521.414 121.38000000000001 520.518 121.32400000000001C519.677 121.26800000000001 518.837 121.21200000000002 518.053 121.156C517.2139999999999 121.043 516.487 120.93100000000001 515.814 120.81800000000001ZM541.401 91.9535L560.1039999999999 91.9535L560.1039999999999 97.35510000000001L547.5619999999999 97.35510000000001L547.5619999999999 103.71300000000001L558.9269999999999 103.71300000000001L558.9269999999999 109.114L547.5619999999999 109.114L547.5619999999999 115.69800000000001L560.3279999999999 115.69800000000001L560.3279999999999 121.099L541.4009999999998 121.099ZM492.354 91.9535L511.055 91.9535L511.055 97.35510000000001L498.458 97.35510000000001L498.458 103.71300000000001L509.879 103.71300000000001L509.879 109.114L498.458 109.114L498.458 115.69800000000001L511.223 115.69800000000001L511.223 121.099L492.35400000000004 121.099ZM651.926 110.465C652.206 111.646 652.6 112.715 653.159 113.56C653.718 114.403 654.39 115.07900000000001 655.286 115.586C656.1809999999999 116.035 657.1899999999999 116.26 658.3649999999999 116.26C660.5489999999999 116.26 662.2289999999999 115.528 663.4609999999999 114.01C664.6919999999999 112.54700000000001 665.3089999999999 110.01400000000001 665.3089999999999 106.52600000000001C665.3089999999999 105.12 665.1969999999999 103.82500000000002 664.9179999999999 102.644C664.6919999999999 101.462 664.2439999999999 100.45 663.685 99.5492C663.126 98.6487 662.396 97.97409999999999 661.5569999999999 97.5236C660.6619999999999 97.0176 659.598 96.793 658.3649999999999 96.793C656.2379999999999 96.793 654.5589999999999 97.5797 653.3269999999999 99.09960000000001C652.0939999999999 100.674 651.4789999999999 103.15100000000001 651.4789999999999 106.52600000000001C651.4789999999999 107.989 651.6469999999999 109.284 651.9259999999999 110.465ZM582.387 115.698L582.387 97.3551L575.3309999999999 97.3551C575.1649999999998 102.13799999999999 574.771 106.077 574.0999999999999 109.11399999999999C573.4289999999999 112.15299999999999 572.7579999999999 114.347 572.0279999999999 115.698ZM527.573 116.26C528.244 116.092 528.805 115.867 529.307 115.47200000000001C529.868 115.135 530.26 114.685 530.539 114.12200000000001C530.819 113.61600000000001 530.989 112.94100000000002 530.989 112.15300000000002C530.989 111.19600000000003 530.8190000000001 110.40900000000002 530.4830000000001 109.84600000000002C530.148 109.22600000000001 529.7 108.77700000000002 529.1410000000001 108.43900000000002C528.5820000000001 108.15800000000002 527.9080000000001 107.93300000000002 527.123 107.82000000000002C526.398 107.70800000000003 525.557 107.65200000000002 524.774 107.65200000000002C524.326 107.65200000000002 523.821 107.70800000000001 523.206 107.76400000000001C522.59 107.82000000000001 522.197 107.876 521.917 107.933L521.917 116.316C522.255 116.373 522.7560000000001 116.429 523.429 116.485C524.101 116.485 524.716 116.541 525.389 116.541C526.172 116.541 526.845 116.429 527.573 116.25999999999999ZM631.603 116.316C632.274 116.148 632.89 115.923 633.449 115.642C634.01 115.304 634.4019999999999 114.91 634.7379999999999 114.40299999999999C635.073 113.954 635.185 113.33399999999999 635.185 112.603C635.185 111.70299999999999 635.0169999999999 111.027 634.626 110.46499999999999C634.2339999999999 109.95799999999998 633.731 109.56499999999998 633.1129999999999 109.28399999999999C632.4979999999999 109.002 631.827 108.889 631.0419999999999 108.77699999999999C630.2589999999999 108.71999999999998 629.531 108.66399999999999 628.7459999999999 108.66399999999999L625.3319999999999 108.66399999999999L625.3319999999999 116.25999999999999C625.4999999999999 116.31599999999999 625.7239999999999 116.37299999999999 626.0589999999999 116.37299999999999C626.3949999999999 116.42899999999999 626.7309999999999 116.42899999999999 627.1219999999998 116.42899999999999C627.5159999999998 116.48499999999999 627.9069999999998 116.48499999999999 628.2989999999999 116.48499999999999C628.6909999999999 116.48499999999999 629.0819999999999 116.54099999999998 629.3639999999999 116.54099999999998C630.1469999999999 116.54099999999998 630.8739999999999 116.42899999999999 631.603 116.31599999999999ZM627.404 104.107C627.852 104.107 628.299 104.107 628.858 104.107C629.476 104.051 629.923 104.051 630.3149999999999 103.995C631.4889999999999 103.60000000000001 632.4419999999999 103.15100000000001 633.281 102.53200000000001C634.0659999999999 101.85700000000001 634.458 101.013 634.458 99.9436C634.458 99.2121 634.29 98.6487 634.01 98.1991C633.675 97.7495 633.281 97.4111 632.778 97.1301C632.274 96.9051 631.715 96.73649999999999 631.042 96.6796C630.427 96.5671 629.755 96.5106 629.138 96.5106C628.299 96.5106 627.572 96.5671 626.898 96.5671C626.227 96.6231 625.724 96.6231 625.332 96.6796L625.332 104.107ZM650.022 150.188C652.9910000000001 149.56799999999998 657.917 146.25 657.917 143.887C657.917 142.929 657.246 142.592 656.6310000000001 142.592C654.7830000000001 142.592 651.311 147.09300000000002 650.022 150.18800000000002ZM528.917 147.826L529.7560000000001 147.826L529.7560000000001 150.695L530.1480000000001 150.52599999999998L532.0520000000001 147.826L533.0020000000002 147.826L531.1010000000002 150.52599999999998L530.7070000000002 150.807L531.2130000000002 151.14399999999998L533.2840000000002 154.015L532.2190000000002 154.015L530.2040000000002 151.201L529.7560000000002 151.201L529.7560000000002 154.015L528.9170000000001 154.015L528.9170000000001 151.088L528.5240000000001 151.201L526.4520000000001 154.015L525.4450000000002 154.015L527.5170000000002 151.25699999999998L528.0200000000002 150.92L527.5730000000002 150.582L525.6130000000002 147.826L526.6220000000002 147.826L528.5240000000002 150.582L528.9170000000003 150.582ZM523.262 155.139L522.6439999999999 155.139L522.4779999999998 154.01500000000001L517.8299999999998 154.01500000000001L517.6619999999998 155.139L517.1019999999999 155.139L517.1019999999999 153.226L517.7739999999999 153.226C517.8299999999999 153.17 517.8859999999999 153.001 517.9979999999999 152.776C518.111 152.55200000000002 518.223 152.214 518.3349999999999 151.81900000000002C518.4469999999999 151.36900000000003 518.559 150.80700000000002 518.6129999999999 150.18800000000002C518.6709999999999 149.51200000000003 518.7249999999999 148.72500000000002 518.7249999999999 147.82600000000002L522.367 147.82600000000002L522.367 153.22600000000003L523.262 153.22600000000003ZM487.652 149.568C487.764 149.175 487.931 148.83800000000002 488.155 148.556C488.43499999999995 148.275 488.715 148.107 489.04999999999995 147.93800000000002C489.38599999999997 147.769 489.77899999999994 147.71300000000002 490.227 147.71300000000002C490.674 147.71300000000002 491.068 147.76900000000003 491.457 147.93800000000002C491.795 148.10700000000003 492.075 148.33200000000002 492.298 148.61300000000003C492.522 148.89400000000003 492.69 149.23100000000002 492.802 149.62500000000003C492.91400000000004 150.02000000000004 492.97 150.47000000000003 492.97 150.92000000000002C492.97 151.425 492.91400000000004 151.877 492.802 152.27100000000002C492.69 152.66400000000002 492.52200000000005 153.001 492.243 153.282C492.019 153.56300000000002 491.739 153.788 491.403 153.901C491.01000000000005 154.071 490.67400000000004 154.12800000000001 490.22700000000003 154.12800000000001C489.723 154.12800000000001 489.33200000000005 154.07100000000003 488.99600000000004 153.901C488.658 153.732 488.379 153.507 488.15500000000003 153.226C487.93100000000004 152.945 487.708 152.608 487.596 152.214C487.484 151.819 487.426 151.425 487.426 150.92C487.426 150.41299999999998 487.538 149.964 487.652 149.56799999999998ZM514.807 161.553C514.919 161.16 515.087 160.823 515.366 160.542C515.59 160.26 515.87 160.034 516.205 159.921C516.541 159.753 516.9350000000001 159.696 517.3820000000001 159.696C517.83 159.696 518.277 159.753 518.613 159.921C518.95 160.09 519.23 160.31699999999998 519.4540000000001 160.59799999999998C519.677 160.879 519.9010000000001 161.21599999999998 520.013 161.60899999999998C520.125 162.003 520.183 162.39899999999997 520.183 162.90399999999997C520.183 163.40999999999997 520.125 163.85999999999996 519.957 164.25399999999996C519.845 164.64899999999997 519.677 164.98599999999996 519.398 165.26699999999997C519.174 165.54799999999997 518.894 165.71699999999996 518.559 165.88599999999997C518.223 165.99799999999996 517.8299999999999 166.11099999999996 517.382 166.11099999999996C516.935 166.11099999999996 516.487 165.99799999999996 516.1519999999999 165.88599999999997C515.814 165.71699999999996 515.5339999999999 165.49199999999996 515.3109999999999 165.21099999999996C515.0869999999999 164.92999999999995 514.9189999999999 164.59299999999996 514.8069999999999 164.19699999999995C514.6929999999999 163.80399999999995 514.6389999999999 163.35399999999996 514.6389999999999 162.90399999999994C514.6389999999999 162.39899999999994 514.6929999999999 161.94699999999995 514.8069999999999 161.55299999999994ZM545.938 161.553C546.05 161.16 546.218 160.823 546.441 160.542C546.721 160.26 547.001 160.034 547.3380000000001 159.921C547.6740000000001 159.753 548.0640000000001 159.696 548.513 159.696C548.96 159.696 549.3520000000001 159.753 549.688 159.921C550.081 160.09 550.361 160.31699999999998 550.585 160.59799999999998C550.808 160.879 550.976 161.21599999999998 551.0880000000001 161.60899999999998C551.2 162.003 551.2560000000001 162.39899999999997 551.2560000000001 162.90399999999997C551.2560000000001 163.40999999999997 551.2 163.85999999999996 551.0880000000001 164.25399999999996C550.9760000000001 164.64899999999997 550.753 164.98599999999996 550.5290000000001 165.26699999999997C550.3050000000001 165.54799999999997 550.0230000000001 165.71699999999996 549.6340000000001 165.88599999999997C549.2960000000002 165.99799999999996 548.9050000000001 166.11099999999996 548.5130000000001 166.11099999999996C548.0100000000001 166.11099999999996 547.6160000000001 165.99799999999996 547.2800000000002 165.88599999999997C546.9450000000002 165.71699999999996 546.6650000000002 165.49199999999996 546.3850000000002 165.21099999999996C546.1620000000003 164.92999999999995 545.9920000000002 164.59299999999996 545.8800000000002 164.19699999999995C545.7680000000003 163.80399999999995 545.7140000000002 163.35399999999996 545.7140000000002 162.90399999999994C545.7140000000002 162.39899999999994 545.7680000000001 161.94699999999995 545.9380000000002 161.55299999999994ZM508.031 140.398L505.623 140.398L505.008 142.03L504.111 142.03L506.632 135.785L507.136 135.785L509.65500000000003 142.03L508.704 142.03ZM541.571 160.598L539.6650000000001 160.598C539.6110000000001 161.16000000000003 539.5530000000001 161.66600000000003 539.5530000000001 162.17200000000003C539.4990000000001 162.62300000000002 539.4410000000001 163.07300000000004 539.3870000000001 163.46600000000004C539.33 163.86000000000004 539.2750000000001 164.19700000000003 539.2170000000001 164.48000000000005C539.1060000000001 164.76100000000005 538.9940000000001 165.04200000000006 538.8820000000001 165.26700000000005C538.7700000000001 165.54800000000006 538.546 165.71700000000004 538.378 165.83000000000004C538.1550000000001 165.94200000000004 537.9870000000001 165.99800000000005 537.763 165.99800000000005C537.5930000000001 165.99800000000005 537.539 165.99800000000005 537.428 165.99800000000005C537.37 165.99800000000005 537.258 165.94200000000004 537.204 165.94200000000004L537.3159999999999 165.21100000000004C537.3699999999999 165.21100000000004 537.4809999999999 165.21100000000004 537.5389999999999 165.21100000000004C537.5929999999998 165.21100000000004 537.6509999999998 165.21100000000004 537.7629999999999 165.15500000000003C537.819 165.15500000000003 537.8749999999999 165.09800000000004 537.9309999999999 165.04200000000003C538.0429999999999 164.98600000000002 538.0989999999999 164.87400000000002 538.155 164.81700000000004C538.2669999999999 164.64900000000003 538.323 164.42200000000003 538.3779999999999 164.19700000000003C538.4899999999999 163.91600000000003 538.5459999999999 163.57900000000004 538.602 163.18500000000003C538.658 162.79200000000003 538.7139999999999 162.28600000000003 538.77 161.72200000000004C538.77 161.21600000000004 538.826 160.54200000000003 538.826 159.80900000000003L542.466 159.80900000000003L542.466 165.99800000000002L541.571 165.99800000000002ZM500.25 148.613L498.178 148.613L498.178 154.015L497.283 154.015L497.283 148.613L495.211 148.613L495.211 147.826L500.25 147.826ZM507.753 148.613L505.681 148.613L505.681 154.015L504.84 154.015L504.84 148.613L502.76899999999995 148.613L502.76899999999995 147.826L507.75299999999993 147.826ZM541.513 136.628L539.441 136.628L539.441 142.02999999999997L538.602 142.02999999999997L538.602 136.628L536.531 136.628L536.531 135.84099999999998L541.5129999999999 135.84099999999998ZM557.974 137.979L558.032 137.304L557.974 137.304L557.5830000000001 137.979L554.4480000000001 142.03L553.8890000000001 142.03L553.8890000000001 135.841L554.7840000000001 135.841L554.7840000000001 140.00400000000002L554.6720000000001 140.62300000000002L554.7280000000002 140.62300000000002L555.1750000000002 139.948L558.3100000000002 135.841L558.8710000000002 135.841L558.8710000000002 142.03L557.9740000000002 142.03ZM557.974 149.907L558.032 149.23100000000002L557.974 149.23100000000002L557.5830000000001 149.96400000000003L554.4480000000001 154.01500000000001L553.8890000000001 154.01500000000001L553.8890000000001 147.82600000000002L554.7840000000001 147.82600000000002L554.7840000000001 151.93300000000002L554.6720000000001 152.60800000000003L554.7280000000002 152.60800000000003L555.1750000000002 151.93300000000002L558.3100000000002 147.82600000000002L558.8710000000002 147.82600000000002L558.8710000000002 154.01500000000001L557.9740000000002 154.01500000000001ZM540.059 151.257L536.922 151.257L536.922 154.01500000000001L536.027 154.01500000000001L536.027 147.82600000000002L536.922 147.82600000000002L536.922 150.47000000000003L540.059 150.47000000000003L540.059 147.82600000000002L540.954 147.82600000000002L540.954 154.01500000000001L540.059 154.01500000000001ZM527.796 165.717C527.5730000000001 165.83 527.349 165.942 527.0690000000001 165.99800000000002C526.734 166.055 526.4520000000001 166.11100000000002 526.1160000000001 166.11100000000002C525.7250000000001 166.11100000000002 525.3330000000001 166.055 524.998 165.88600000000002C524.604 165.77300000000002 524.326 165.60500000000002 524.0450000000001 165.32300000000004C523.7650000000001 165.04200000000003 523.541 164.70500000000004 523.373 164.31000000000003C523.2620000000001 163.91600000000003 523.1500000000001 163.46600000000004 523.1500000000001 162.90400000000002C523.1500000000001 162.34100000000004 523.2620000000001 161.83400000000003 523.4290000000001 161.44100000000003C523.5970000000001 160.99100000000004 523.8210000000001 160.65400000000002 524.1010000000001 160.42900000000003C524.3800000000001 160.14600000000004 524.7160000000001 159.97700000000003 525.0510000000002 159.86500000000004C525.3890000000001 159.75300000000004 525.7810000000002 159.69600000000003 526.1160000000002 159.69600000000003C526.5100000000002 159.69600000000003 526.7880000000002 159.69600000000003 527.0690000000002 159.75300000000001C527.2930000000002 159.80900000000003 527.5170000000002 159.865 527.6840000000002 159.92100000000002L527.4610000000002 160.65400000000002C527.1810000000003 160.54200000000003 526.7880000000002 160.485 526.1720000000003 160.485C525.8920000000003 160.485 525.6690000000002 160.485 525.3890000000002 160.598C525.1640000000002 160.65400000000002 524.9400000000003 160.823 524.7160000000002 160.991C524.5500000000002 161.216 524.3800000000002 161.441 524.2680000000003 161.77800000000002C524.1560000000003 162.05900000000003 524.1010000000002 162.455 524.1010000000002 162.90400000000002C524.1010000000002 163.29800000000003 524.1560000000002 163.63500000000002 524.2680000000003 163.973C524.3800000000002 164.25400000000002 524.5500000000003 164.48000000000002 524.7160000000002 164.705C524.9400000000003 164.93 525.1640000000002 165.042 525.3890000000002 165.155C525.6690000000002 165.267 525.9480000000002 165.323 526.2840000000002 165.323C526.5640000000002 165.323 526.8450000000003 165.267 527.0110000000002 165.267C527.2350000000002 165.21099999999998 527.4050000000002 165.09799999999998 527.5730000000002 165.042ZM513.798 139.215L513.351 139.215L513.351 142.03L512.51 142.03L512.51 135.841L513.351 135.841L513.351 138.709L513.742 138.597L515.982 135.841L516.991 135.841L514.751 138.541L514.358 138.822L514.8629999999999 139.161L517.27 142.03L516.1519999999999 142.03ZM555.849 163.185L555.399 163.185L555.399 165.998L554.56 165.998L554.56 159.809L555.399 159.809L555.399 162.623L555.849 162.511L558.032 159.809L559.039 159.809L556.856 162.45499999999998L556.408 162.736L556.9110000000001 163.129L559.3190000000001 165.998L558.2560000000001 165.998ZM510.438 160.598L507.471 160.598L507.471 165.99800000000002L506.576 165.99800000000002L506.576 159.80900000000003L511.33500000000004 159.80900000000003L511.33500000000004 165.99800000000002L510.43800000000005 165.99800000000002ZM481.211 151.201L480.764 151.201L480.764 154.015L479.925 154.015L479.925 147.826L480.764 147.826L480.764 150.695L481.211 150.52599999999998L483.396 147.826L484.403 147.826L482.16400000000004 150.47L481.77200000000005 150.807L482.27600000000007 151.14399999999998L484.68300000000005 154.015L483.62000000000006 154.015ZM498.234 139.161L498.234 138.485L498.346 138.485C498.402 138.485 498.458 138.485 498.569 138.485C498.625 138.485 498.737 138.485 498.849 138.485C498.905 138.42800000000003 499.017 138.42800000000003 499.073 138.42800000000003C499.185 138.42800000000003 499.24199999999996 138.42800000000003 499.29699999999997 138.42800000000003C499.63199999999995 138.372 499.856 138.26000000000002 500.08 138.14700000000002C500.305 137.979 500.417 137.75400000000002 500.417 137.473C500.417 137.304 500.417 137.13600000000002 500.361 137.02100000000002C500.25 136.90900000000002 500.194 136.79600000000002 500.08 136.74C499.914 136.684 499.80199999999996 136.62800000000001 499.632 136.572C499.466 136.572 499.297 136.51500000000001 499.129 136.51500000000001C498.793 136.51500000000001 498.51300000000003 136.572 498.23400000000004 136.62800000000001C498.00800000000004 136.68400000000003 497.78400000000005 136.74 497.672 136.79600000000002L497.449 136.06600000000003C497.507 136.01000000000002 497.56100000000004 136.01000000000002 497.73 135.95300000000003C497.84200000000004 135.95300000000003 497.954 135.89700000000002 498.122 135.84100000000004C498.29 135.84100000000004 498.458 135.78500000000003 498.68100000000004 135.78500000000003C498.84900000000005 135.78500000000003 499.07300000000004 135.78500000000003 499.297 135.78500000000003C499.52000000000004 135.78500000000003 499.802 135.78500000000003 500.026 135.84100000000004C500.305 135.89700000000005 500.529 135.95300000000003 500.697 136.06600000000003C500.921 136.17800000000003 501.089 136.34700000000004 501.2 136.57200000000003C501.31399999999996 136.74000000000004 501.368 136.96500000000003 501.368 137.30400000000003C501.368 137.58500000000004 501.256 137.86600000000004 501.033 138.14700000000002C500.865 138.372 500.529 138.597 500.13800000000003 138.70900000000003C500.58500000000004 138.82200000000003 500.92100000000005 138.93400000000003 501.20000000000005 139.21500000000003C501.42600000000004 139.44200000000004 501.59200000000004 139.78000000000003 501.59200000000004 140.22900000000004C501.59200000000004 140.56600000000003 501.48 140.84700000000004 501.36800000000005 141.07200000000003C501.20000000000005 141.35500000000002 501.0330000000001 141.52400000000003 500.75300000000004 141.69300000000004C500.52900000000005 141.86100000000005 500.25000000000006 141.97400000000005 499.968 142.03000000000003C499.69 142.14200000000002 499.35400000000004 142.14200000000002 499.017 142.14200000000002C498.625 142.14200000000002 498.29 142.14200000000002 497.954 142.086C497.672 142.03 497.449 141.97400000000002 497.283 141.917L497.507 141.129C497.672 141.185 497.842 141.24099999999999 498.122 141.297C498.402 141.355 498.737 141.412 499.129 141.412C499.297 141.412 499.466 141.35500000000002 499.632 141.297C499.856 141.24099999999999 500.026 141.185 500.138 141.129C500.30499999999995 141.016 500.417 140.904 500.529 140.73499999999999C500.585 140.623 500.641 140.45399999999998 500.641 140.22899999999998C500.641 139.892 500.529 139.611 500.25 139.44199999999998C499.968 139.32999999999998 499.578 139.21499999999997 499.073 139.16099999999997C499.017 139.16099999999997 498.96099999999996 139.16099999999997 498.905 139.16099999999997C498.849 139.16099999999997 498.73699999999997 139.16099999999997 498.681 139.16099999999997ZM520.349 135.953C520.5730000000001 135.897 520.854 135.841 521.134 135.841C521.414 135.785 521.693 135.785 522.029 135.785C522.309 135.785 522.59 135.785 522.926 135.841C523.206 135.89700000000002 523.485 136.01000000000002 523.7650000000001 136.178C523.9890000000001 136.291 524.2120000000001 136.515 524.3800000000001 136.74C524.5500000000001 137.02100000000002 524.6040000000002 137.304 524.6040000000002 137.698C524.6040000000002 138.091 524.5500000000002 138.372 524.3800000000001 138.65300000000002C524.2680000000001 138.93400000000003 524.0450000000001 139.16100000000003 523.8210000000001 139.27400000000003C523.5410000000002 139.44200000000004 523.2620000000002 139.61100000000002 522.9800000000001 139.66700000000003C522.6440000000001 139.72300000000004 522.3090000000001 139.78000000000003 522.0290000000001 139.78000000000003C521.9730000000001 139.78000000000003 521.9170000000001 139.78000000000003 521.8610000000001 139.78000000000003C521.7490000000001 139.78000000000003 521.6930000000001 139.78000000000003 521.6370000000001 139.78000000000003C521.5260000000001 139.78000000000003 521.47 139.78000000000003 521.3580000000001 139.72300000000004C521.302 139.72300000000004 521.2460000000001 139.72300000000004 521.2460000000001 139.72300000000004L521.2460000000001 142.03000000000003L520.349 142.03000000000003ZM527.741 135.841L528.582 135.841L528.582 138.204C528.636 138.204 528.693 138.204 528.747 138.204C528.805 138.204 528.8589999999999 138.204 528.9169999999999 138.204C529.0289999999999 138.14700000000002 529.083 138.14700000000002 529.141 138.14700000000002C529.2529999999999 138.14700000000002 529.307 138.14700000000002 529.4209999999999 138.14700000000002C529.6999999999999 138.14700000000002 529.9799999999999 138.204 530.26 138.26000000000002C530.595 138.31600000000003 530.819 138.42800000000003 531.043 138.54100000000003C531.266 138.70900000000003 531.436 138.87800000000001 531.604 139.10300000000004C531.716 139.38600000000002 531.772 139.66700000000003 531.772 140.06100000000004C531.772 140.39800000000002 531.716 140.67900000000003 531.604 140.96000000000004C531.436 141.24100000000004 531.2660000000001 141.46800000000005 531.043 141.63600000000002C530.819 141.80500000000004 530.595 141.91700000000003 530.26 141.97400000000002C529.98 142.086 529.588 142.14200000000002 529.253 142.14200000000002C529.1410000000001 142.14200000000002 529.029 142.14200000000002 528.917 142.14200000000002C528.8050000000001 142.14200000000002 528.693 142.086 528.524 142.086C528.412 142.086 528.244 142.086 528.132 142.03C527.9639999999999 142.03 527.852 142.03 527.741 141.974ZM544.482 135.841L545.379 135.841L545.379 138.204C545.379 138.204 545.432 138.204 545.49 138.204C545.544 138.204 545.602 138.204 545.714 138.204C545.768 138.14700000000002 545.826 138.14700000000002 545.9380000000001 138.14700000000002C545.9920000000001 138.14700000000002 546.0500000000001 138.14700000000002 546.1620000000001 138.14700000000002C546.4410000000001 138.14700000000002 546.7770000000002 138.204 547.0570000000001 138.26000000000002C547.3380000000001 138.31600000000003 547.5620000000001 138.42800000000003 547.7860000000002 138.54100000000003C548.0100000000002 138.70900000000003 548.1760000000002 138.87800000000001 548.3450000000001 139.10300000000004C548.4570000000001 139.38600000000002 548.5130000000001 139.66700000000003 548.5130000000001 140.06100000000004C548.5130000000001 140.39800000000002 548.4570000000001 140.67900000000003 548.3450000000001 140.96000000000004C548.2330000000002 141.24100000000004 548.0640000000002 141.46800000000005 547.8400000000001 141.63600000000002C547.6160000000001 141.80500000000004 547.3380000000002 141.91700000000003 547.0010000000001 141.97400000000002C546.7210000000001 142.086 546.3850000000001 142.14200000000002 545.9920000000001 142.14200000000002C545.8800000000001 142.14200000000002 545.826 142.14200000000002 545.6560000000001 142.14200000000002C545.5440000000001 142.14200000000002 545.432 142.086 545.267 142.086C545.153 142.086 544.985 142.086 544.873 142.03C544.705 142.03 544.5930000000001 142.03 544.4820000000001 141.974ZM544.482 147.826L545.379 147.826L545.379 150.188C545.379 150.188 545.432 150.188 545.49 150.188C545.544 150.13199999999998 545.602 150.13199999999998 545.714 150.13199999999998C545.768 150.13199999999998 545.826 150.13199999999998 545.9380000000001 150.13199999999998C545.9920000000001 150.13199999999998 546.0500000000001 150.13199999999998 546.1620000000001 150.13199999999998C546.4410000000001 150.13199999999998 546.7770000000002 150.13199999999998 547.0570000000001 150.188C547.3380000000001 150.24499999999998 547.5620000000001 150.357 547.7860000000002 150.52599999999998C548.0100000000002 150.63899999999998 548.1760000000002 150.86299999999997 548.3450000000001 151.088C548.4570000000001 151.313 548.5130000000001 151.65 548.5130000000001 151.989C548.5130000000001 152.327 548.4570000000001 152.66400000000002 548.3450000000001 152.945C548.2330000000002 153.17 548.0640000000002 153.39499999999998 547.8400000000001 153.563C547.6160000000001 153.732 547.3380000000002 153.90099999999998 547.0010000000001 153.95899999999997C546.7210000000001 154.07099999999997 546.3850000000001 154.07099999999997 545.9920000000001 154.07099999999997C545.8800000000001 154.07099999999997 545.826 154.07099999999997 545.6560000000001 154.07099999999997C545.5440000000001 154.07099999999997 545.432 154.07099999999997 545.267 154.07099999999997C545.153 154.07099999999997 544.985 154.01499999999996 544.873 154.01499999999996C544.705 154.01499999999996 544.5930000000001 153.95899999999995 544.4820000000001 153.95899999999995ZM530.877 159.809L534.627 159.809L534.627 160.59799999999998L531.7719999999999 160.59799999999998L531.7719999999999 162.45499999999998L534.347 162.45499999999998L534.347 163.242L531.7719999999999 163.242L531.7719999999999 165.21099999999998L534.6829999999999 165.21099999999998L534.6829999999999 165.998L530.8769999999998 165.998ZM510.72 147.826L514.416 147.826L514.416 148.613L511.559 148.613L511.559 150.47L514.192 150.47L514.192 151.257L511.559 151.257L511.559 153.226L514.469 153.226L514.469 154.015L510.72 154.015ZM515.646 163.804C515.7579999999999 164.141 515.87 164.366 515.982 164.593C516.1519999999999 164.81699999999998 516.317 164.986 516.5409999999999 165.09799999999998C516.823 165.267 517.0469999999999 165.32299999999998 517.382 165.32299999999998C517.9409999999999 165.32299999999998 518.3889999999999 165.09799999999998 518.7249999999999 164.70499999999998C519.0619999999999 164.36599999999999 519.2299999999999 163.74699999999999 519.2299999999999 162.904C519.2299999999999 162.567 519.1739999999999 162.228 519.1179999999999 161.947C519.0619999999999 161.666 518.9499999999999 161.385 518.7829999999999 161.216C518.6129999999999 160.991 518.4469999999999 160.76600000000002 518.223 160.654C517.9979999999999 160.542 517.718 160.48499999999999 517.382 160.48499999999999C516.823 160.48499999999999 516.375 160.654 516.04 161.047C515.702 161.441 515.534 162.059 515.534 162.904C515.534 163.242 515.59 163.523 515.646 163.804ZM546.777 163.804C546.8330000000001 164.141 546.945 164.366 547.113 164.593C547.224 164.81699999999998 547.45 164.986 547.6740000000001 165.09799999999998C547.8980000000001 165.267 548.176 165.32299999999998 548.5130000000001 165.32299999999998C549.0720000000001 165.32299999999998 549.5220000000002 165.09799999999998 549.8570000000002 164.70499999999998C550.1930000000002 164.36599999999999 550.3610000000002 163.74699999999999 550.3610000000002 162.904C550.3610000000002 162.567 550.3050000000002 162.228 550.2470000000002 161.947C550.1350000000002 161.666 550.0230000000001 161.385 549.9120000000001 161.216C549.7460000000001 160.991 549.5760000000001 160.76600000000002 549.3520000000002 160.654C549.0720000000002 160.542 548.7930000000002 160.48499999999999 548.5130000000001 160.48499999999999C547.9520000000001 160.48499999999999 547.5040000000001 160.654 547.1690000000001 161.047C546.8330000000001 161.441 546.6650000000001 162.059 546.6650000000001 162.904C546.6650000000001 163.242 546.7210000000001 163.523 546.777 163.804ZM488.491 151.877C488.54699999999997 152.15800000000002 488.65799999999996 152.43900000000002 488.82599999999996 152.608C488.996 152.833 489.162 153.05700000000002 489.38599999999997 153.17000000000002C489.60999999999996 153.282 489.89099999999996 153.33800000000002 490.227 153.33800000000002C490.786 153.33800000000002 491.234 153.17000000000002 491.56899999999996 152.776C491.907 152.383 492.07499999999993 151.763 492.07499999999993 150.92000000000002C492.07499999999993 150.58200000000002 492.01899999999995 150.30100000000002 491.9629999999999 150.02C491.8509999999999 149.68300000000002 491.7949999999999 149.45600000000002 491.6269999999999 149.23100000000002C491.4569999999999 149.00600000000003 491.2909999999999 148.83800000000002 491.06799999999987 148.669C490.8439999999999 148.556 490.5619999999999 148.5 490.22699999999986 148.5C489.66699999999986 148.5 489.21999999999986 148.669 488.88399999999984 149.119C488.54699999999985 149.512 488.37899999999985 150.076 488.37899999999985 150.92C488.37899999999985 151.25699999999998 488.43499999999983 151.594 488.4909999999999 151.87699999999998ZM521.526 153.226L521.526 148.613L519.51 148.613C519.51 149.231 519.454 149.795 519.398 150.301C519.342 150.75099999999998 519.2860000000001 151.201 519.23 151.594C519.174 151.989 519.062 152.271 519.006 152.552C518.894 152.833 518.783 153.057 518.725 153.226ZM521.581 136.572C521.414 136.572 521.302 136.572 521.246 136.62800000000001L521.246 138.93400000000003C521.246 138.99000000000004 521.302 138.99000000000004 521.358 138.99000000000004C521.414 138.99000000000004 521.526 138.99000000000004 521.5809999999999 138.99000000000004C521.637 138.99000000000004 521.6929999999999 138.99000000000004 521.805 138.99000000000004C521.861 138.99000000000004 521.9169999999999 138.99000000000004 521.9169999999999 138.99000000000004C522.141 138.99000000000004 522.367 138.99000000000004 522.5899999999999 138.93400000000003C522.756 138.93400000000003 522.9799999999999 138.87800000000001 523.1499999999999 138.76600000000002C523.3169999999999 138.65300000000002 523.4289999999999 138.54100000000003 523.5409999999998 138.372C523.6529999999998 138.204 523.6529999999998 137.979 523.6529999999998 137.698C523.6529999999998 137.473 523.6529999999998 137.304 523.5409999999998 137.136C523.4289999999999 137.021 523.3169999999998 136.853 523.1499999999999 136.796C522.9799999999999 136.684 522.8139999999999 136.628 522.5899999999999 136.628C522.42 136.57199999999997 522.1969999999999 136.57199999999997 522.0289999999999 136.57199999999997C521.8609999999999 136.57199999999997 521.6929999999999 136.57199999999997 521.5809999999999 136.57199999999997ZM549.464 135.841L550.3610000000001 135.841L550.3610000000001 142.03L549.464 142.03ZM549.464 147.826L550.3610000000001 147.826L550.3610000000001 154.015L549.464 154.015ZM529.924 141.297C530.092 141.24099999999999 530.26 141.129 530.427 141.016C530.539 140.904 530.653 140.791 530.707 140.623C530.819 140.51 530.819 140.285 530.819 140.117C530.819 139.83599999999998 530.819 139.667 530.707 139.499C530.653 139.386 530.483 139.274 530.371 139.161C530.204 139.103 530.036 138.99 529.8679999999999 138.99C529.6999999999999 138.934 529.477 138.934 529.2529999999999 138.934C529.141 138.934 529.0289999999999 138.934 528.9169999999999 138.934C528.747 138.99 528.636 138.99 528.5819999999999 138.99L528.5819999999999 141.297C528.6929999999999 141.297 528.8049999999998 141.355 528.9169999999999 141.355C529.0289999999999 141.355 529.141 141.355 529.3069999999999 141.355C529.5319999999999 141.355 529.6999999999999 141.297 529.9239999999999 141.297ZM546.665 141.297C546.833 141.24099999999999 547.001 141.129 547.169 141.016C547.28 140.904 547.3919999999999 140.791 547.504 140.623C547.562 140.51 547.616 140.285 547.616 140.117C547.616 139.83599999999998 547.562 139.667 547.4499999999999 139.499C547.3919999999999 139.386 547.28 139.274 547.1129999999999 139.161C547.001 139.103 546.833 138.99 546.6089999999999 138.99C546.4409999999999 138.934 546.218 138.934 545.992 138.934C545.88 138.934 545.7679999999999 138.934 545.656 138.934C545.4899999999999 138.99 545.4319999999999 138.99 545.3789999999999 138.99L545.3789999999999 141.297C545.4319999999999 141.297 545.5439999999999 141.355 545.656 141.355C545.7679999999999 141.355 545.938 141.355 546.05 141.355C546.274 141.355 546.497 141.297 546.665 141.297ZM546.665 153.226C546.833 153.17 547.001 153.114 547.169 153.001C547.28 152.889 547.3919999999999 152.776 547.504 152.608C547.562 152.439 547.616 152.27100000000002 547.616 152.04500000000002C547.616 151.81900000000002 547.562 151.65 547.4499999999999 151.48200000000003C547.3919999999999 151.31300000000002 547.28 151.20100000000002 547.1129999999999 151.14400000000003C547.001 151.03200000000004 546.833 150.97600000000003 546.6089999999999 150.97600000000003C546.4409999999999 150.92000000000002 546.218 150.92000000000002 545.992 150.92000000000002C545.88 150.92000000000002 545.7679999999999 150.92000000000002 545.656 150.92000000000002C545.4899999999999 150.92000000000002 545.4319999999999 150.97600000000003 545.3789999999999 150.97600000000003L545.3789999999999 153.28200000000004C545.4319999999999 153.28200000000004 545.5439999999999 153.28200000000004 545.656 153.28200000000004C545.7679999999999 153.33800000000005 545.938 153.33800000000005 546.05 153.33800000000005C546.274 153.33800000000005 546.497 153.28200000000004 546.665 153.22600000000006ZM532.725 135.841L533.562 135.841L533.562 142.03L532.725 142.03ZM505.905 139.667L507.80699999999996 139.667L507.08 137.923L506.856 136.965L506.632 137.923ZM555.567 146.306C555.623 146.531 555.737 146.699 555.849 146.812C556.0150000000001 146.924 556.1840000000001 146.98100000000002 556.4620000000001 146.98100000000002C556.6880000000001 146.98100000000002 556.9110000000001 146.92400000000004 557.0240000000001 146.812C557.1910000000001 146.699 557.3030000000001 146.531 557.3030000000001 146.306L558.0320000000002 146.47400000000002C557.9740000000002 146.812 557.8080000000001 147.09300000000002 557.5270000000002 147.26200000000003C557.3030000000001 147.43100000000004 556.9110000000002 147.54300000000003 556.4620000000001 147.54300000000003C555.9610000000001 147.54300000000003 555.623 147.43100000000004 555.2870000000001 147.26200000000003C555.0080000000002 147.14900000000003 554.8400000000001 146.86800000000002 554.7840000000001 146.53100000000003ZM555.567 134.377C555.623 134.54600000000002 555.737 134.714 555.849 134.827C556.0150000000001 134.939 556.1840000000001 134.99699999999999 556.4620000000001 134.99699999999999C556.6880000000001 134.99699999999999 556.9110000000001 134.939 557.0240000000001 134.827C557.1910000000001 134.714 557.3030000000001 134.546 557.3030000000001 134.377L558.0320000000002 134.54600000000002C557.9740000000002 134.82700000000003 557.8080000000001 135.11 557.5270000000002 135.27900000000002C557.3030000000001 135.44700000000003 556.9110000000002 135.56000000000003 556.4620000000001 135.56000000000003C555.9610000000001 135.56000000000003 555.623 135.50400000000002 555.2870000000001 135.33500000000004C555.0080000000002 135.16600000000003 554.8400000000001 134.88300000000004 554.7840000000001 134.54600000000005Z " fill="#ffffff" fill-opacity="1" transform="matrix(1,0,0,1,-461,-78)"></path></svg>